<?xml version="1.0" encoding="utf-8"?>
<!-- Generator: Adobe Illustrator 28.1.0, SVG Export Plug-In . SVG Version: 6.00 Build 0)  -->
<svg version="1.1" id="Layer_1" xmlns="http://www.w3.org/2000/svg" xmlns:xlink="http://www.w3.org/1999/xlink" x="0px" y="0px"
	 viewBox="0 0 24 20.4" style="enable-background:new 0 0 24 20.4;" xml:space="preserve">
<style type="text/css">
	.st0{fill:#FFFFFF;}
</style>
<path id="home" class="st0" d="M3.6,20.4v-9.6H0L12,0l6,5.3V1.8h2.4v5.7l3.6,3.3h-3.6v9.6h-6.9v-7.2h-3v7.2L3.6,20.4z M5.4,18.6h3.3
	v-7.2h6.6v7.2h3.3V8.4l-6.6-6l-6.6,6L5.4,18.6z M8.7,11.4L8.7,11.4z M9.5,8.1h5.1c0-0.6-0.3-1.2-0.8-1.6C13.3,6,12.7,5.8,12,5.8
	c-0.7,0-1.3,0.2-1.8,0.6C9.7,6.9,9.4,7.5,9.5,8.1L9.5,8.1z"/>
</svg>
