<svg xmlns="http://www.w3.org/2000/svg" width="1048.734" height="167.559" viewBox="0 0 1048.734 167.559">
  <g id="Group_170" data-name="Group 170" transform="translate(-7317.709 -4933.263)">
    <path id="Path_63" data-name="Path 63" d="M-25.595,95.21H.886v-37.3H25.064c26.02,0,38.147-12.588,38.147-35.538V18.684c0-22.873-12.127-35.538-38.147-35.538H-25.595ZM.809,3.257H19.691c12.281,0,16.656,4.605,16.656,15.5v3.531c0,10.976-4.375,15.5-16.656,15.5H.809ZM77.026,95.21h26.481V53.531h22.106c12.281,0,16.2,4.068,16.2,15.658v3.991a73.828,73.828,0,0,0,2.917,22.029h26.4c-2.3-7.522-2.686-14.046-2.686-22.413V69.189c0-14.277-5.91-24.408-22.566-25.79v-.23c15.965-2.3,22.72-13.355,22.72-28.553v-3.07c0-18.114-11.667-28.4-34.924-28.4H77.026Zm26.481-61.481V3.257h22.106c11.744,0,16.119,4.3,16.119,13.2v2.61c0,10.055-5.066,14.66-16.2,14.66Zm131.787,63.63c31.777,0,49.968-17.193,49.968-47.051V28.125c0-29.858-18.191-47.051-49.968-47.051S185.326-1.733,185.326,28.125V50.308C185.326,80.166,203.517,97.359,235.294,97.359Zm-23.1-47.051V28.125c0-17.577,7.061-25.713,23.1-25.713s23.1,8.136,23.1,25.713V50.308c0,17.577-7.061,25.713-23.1,25.713S212.191,67.885,212.191,50.308Z" transform="translate(7343.304 5003.462)" fill="#fff"/>
    <g id="Group_161" data-name="Group 161" transform="translate(7554.782 4933.263)">
      <path id="Subtraction_2" data-name="Subtraction 2" d="M97.487,103.075l0-.012a54.31,54.31,0,0,0,3.7-19.741c0-31.961-27.885-57.963-62.16-57.963A65.181,65.181,0,0,0,0,38.207,58.441,58.441,0,0,1,22.392,10.746,64.841,64.841,0,0,1,58.457,0a64.087,64.087,0,0,1,43.952,16.976,55.687,55.687,0,0,1,18.205,40.986c0,17.592-8.425,34.032-23.116,45.1Z" transform="translate(0 0)" fill="#6da944"/>
    </g>
    <path id="Path_48" data-name="Path 48" d="M58.291-19.179c31.43,0,49.063-14.383,49.063-41.061v-5.026H78.3v5.8c0,13.919-6.487,20.105-20.009,20.105s-20.1-6.186-20.1-20.105V-95.038c0-13.919,6.578-20.105,20.1-20.105S78.3-108.957,78.3-95.038v5.722h29.054v-4.949c0-26.678-17.633-41.061-49.063-41.061S9.137-120.943,9.137-94.264V-60.24C9.137-33.562,26.861-19.179,58.291-19.179ZM127-20.8h45.957c33.988,0,48.515-12.218,48.515-36.267V-97.435c0-24.049-14.527-36.267-48.515-36.267H127Zm27.41-19.332V-114.37h18.547c13.613,0,20.1,4.949,20.1,16.935V-57.07c0,11.986-6.487,16.935-20.1,16.935ZM286.7-19.179c30.79,0,47.418-11.677,47.418-31.4v-1.392c0-16.858-9.228-25.982-30.7-31.7l-19.735-5.258c-12.06-3.248-15.167-7.81-15.167-15.079v-.387c0-7.037,5.025-12.218,18.273-12.218,13.979,0,18,5.8,18.273,15.62l.183,6.186H334.3v-6.186c0-21.652-15.441-34.411-47.51-34.411-30.516,0-47.418,11.909-47.418,32.014v.773c0,17.244,8.771,26.524,30.7,32.323l19.735,5.258c12.517,3.325,15.167,7.114,15.167,13.919v.851c0,7.578-5.116,12.373-18.273,12.373-13.248,0-18.273-5.49-18.273-15.775v-5.49H239.281v5.568C239.281-31.938,254.539-19.179,286.7-19.179ZM418.629-20.8h27.41V-133.7h-27.41v45.082H380.439V-133.7h-27.41V-20.8h27.41v-47.48h38.191Zm94.835,1.624c29.968,0,46.139-13.223,46.139-37.659V-133.7h-27.41v76.864c0,11.135-5.756,17.785-18.73,17.785s-18.73-6.65-18.73-17.785V-133.7h-27.41v76.864C467.325-32.4,483.5-19.179,513.465-19.179ZM581.987-20.8h54.362c26.039,0,37.094-10.285,37.094-28.689v-1.856c0-15.62-8.68-25.364-29.511-26.756v-.387c20.648-1.779,28.049-12.218,28.049-26.524v-1.624c0-17.785-12.426-27.065-36.363-27.065H581.987ZM609.4-39.052V-69.287l17.816.077c13.979.077,17.359,4.1,17.359,13.687v2.784c0,10.594-5.3,13.687-17.085,13.687Zm0-48.485v-27.915h17.085c12.426,0,16.72,4.408,16.72,13.687v1.315c0,9.589-5.3,12.914-16.811,12.914Z" transform="translate(7693 5120)" fill="#fabd03"/>
  </g>
</svg>
