<svg xmlns="http://www.w3.org/2000/svg" width="149.843" height="36.715" viewBox="0 0 149.843 36.715">
  <g id="Group_161" data-name="Group 161" transform="translate(-1196.406 3003.428)">
    <g id="Group_161-2" data-name="Group 161" transform="translate(1248.353 -3003.428)">
      <path id="Subtraction_2" data-name="Subtraction 2" d="M21.361,22.586v0a11.9,11.9,0,0,0,.81-4.326c0-7-6.11-12.7-13.621-12.7A14.282,14.282,0,0,0,0,8.372,12.805,12.805,0,0,1,4.906,2.355,14.208,14.208,0,0,1,12.809,0,14.043,14.043,0,0,1,22.44,3.72,12.2,12.2,0,0,1,26.429,12.7a12.349,12.349,0,0,1-5.065,9.883Z" transform="translate(0 0)" fill="#6da944"/>
    </g>
    <path id="Path_11" data-name="Path 11" d="M-25.595,6.083h5.8V-2.09h5.3c5.7,0,8.359-2.758,8.359-7.787v-.807c0-5.012-2.657-7.787-8.359-7.787h-11.1Zm5.786-20.149h4.137c2.691,0,3.65,1.009,3.65,3.4v.774c0,2.405-.959,3.4-3.65,3.4h-4.137Zm16.7,20.149h5.8V-3.049H7.538c2.691,0,3.549.891,3.549,3.431v.875a16.177,16.177,0,0,0,.639,4.827h5.786a15.686,15.686,0,0,1-.589-4.911V.382c0-3.128-1.3-5.348-4.945-5.651v-.05c3.5-.5,4.978-2.926,4.978-6.257v-.673c0-3.969-2.556-6.223-7.652-6.223H-3.108Zm5.8-13.472v-6.677H7.538c2.573,0,3.532.942,3.532,2.893v.572c0,2.2-1.11,3.212-3.549,3.212ZM31.571,6.554c6.963,0,10.949-3.767,10.949-10.31V-8.616c0-6.542-3.986-10.31-10.949-10.31S20.622-15.158,20.622-8.616v4.861C20.622,2.787,24.608,6.554,31.571,6.554ZM26.509-3.755V-8.616c0-3.851,1.547-5.634,5.062-5.634s5.062,1.783,5.062,5.634v4.861c0,3.851-1.547,5.634-5.062,5.634S26.509.1,26.509-3.755Z" transform="translate(1222 -2973.267)" fill="#fff"/>
    <path id="Path_10" data-name="Path 10" d="M-24.545,5.973h9.873C-6.734,5.973-3.589,2.828-3.589-4.3V-8.289c0-7.148-3.145-10.293-11.083-10.293h-9.873Zm5.8-4.474V-14.108h4.053c3.986,0,5.214,1.648,5.214,5.819V-4.3c0,4.154-1.228,5.8-5.214,5.8ZM-.023,5.973h5.8V-3.159h4.844c2.691,0,3.549.891,3.549,3.431v.875a16.177,16.177,0,0,0,.639,4.827H20.6a15.685,15.685,0,0,1-.589-4.911V.272c0-3.128-1.3-5.348-4.945-5.651v-.05c3.5-.5,4.978-2.926,4.978-6.257v-.673c0-3.969-2.556-6.223-7.652-6.223H-.023ZM5.779-7.5v-6.677h4.844c2.573,0,3.532.942,3.532,2.893v.572c0,2.2-1.11,3.212-3.549,3.212ZM24.212,5.973H40.66V1.482H30.014V-4.286H40.66V-8.777H30.014v-5.315H40.66v-4.491H24.212Z" transform="translate(1305.588 -2973.156)" fill="#fabd03"/>
  </g>
</svg>
