<svg xmlns="http://www.w3.org/2000/svg" width="546" height="130" viewBox="0 0 546 130">
  <g id="provenLogo" transform="translate(-5491 -1969)">
    <g id="ProvenTech" transform="translate(0 193)">
      <g id="Group_152" data-name="Group 152" transform="translate(0 196)">
        <rect id="Rectangle_202" data-name="Rectangle 202" width="329" height="130" transform="translate(5491 1580)" fill="#02205f"/>
        <rect id="Rectangle_203" data-name="Rectangle 203" width="217" height="130" transform="translate(5820 1580)" fill="#fbbd03"/>
      </g>
      <path id="Path_26" data-name="Path 26" d="M42.194-35.186a15.868,15.868,0,0,1-1.934,7.665A14.209,14.209,0,0,1,34.2-21.754a22.039,22.039,0,0,1-10.4,2.19H15.257V0H5.037V-50.954H23.8A22.672,22.672,0,0,1,33.872-48.91a14.239,14.239,0,0,1,6.242,5.621A15.818,15.818,0,0,1,42.194-35.186ZM23.36-27.813q4.234,0,6.278-1.934a7.128,7.128,0,0,0,2.044-5.438q0-7.446-8.322-7.446h-8.1v14.819Zm36.281-6.351A14.368,14.368,0,0,1,64.787-39.2a14.313,14.313,0,0,1,7.263-1.825V-30.3h-2.7q-4.818,0-7.263,2.263t-2.446,7.884V0H49.421V-40.442h10.22ZM96.871.657A21.3,21.3,0,0,1,86.359-1.935a18.661,18.661,0,0,1-7.337-7.336,21.983,21.983,0,0,1-2.664-10.95A21.517,21.517,0,0,1,79.1-31.171a19.023,19.023,0,0,1,7.483-7.337A21.717,21.717,0,0,1,97.163-41.1a21.717,21.717,0,0,1,10.585,2.591,19.023,19.023,0,0,1,7.482,7.337,21.517,21.517,0,0,1,2.738,10.95,21.078,21.078,0,0,1-2.811,10.95,19.462,19.462,0,0,1-7.592,7.336A22.076,22.076,0,0,1,96.871.657Zm0-8.906A10.631,10.631,0,0,0,102.09-9.6,9.815,9.815,0,0,0,106-13.651a13.653,13.653,0,0,0,1.46-6.57q0-5.767-3.03-8.87a9.959,9.959,0,0,0-7.41-3.1,9.724,9.724,0,0,0-7.337,3.1q-2.957,3.1-2.956,8.87t2.883,8.87A9.494,9.494,0,0,0,96.871-8.249ZM142.35-9.417l10.22-31.025h10.877L148.482,0h-12.41L121.18-40.442h10.95ZM206.809-21.1a24.118,24.118,0,0,1-.292,3.942H176.952a10.055,10.055,0,0,0,3.066,6.862,9.454,9.454,0,0,0,6.643,2.482,8.345,8.345,0,0,0,8.1-4.891h11.023a18.422,18.422,0,0,1-6.716,9.6A19.607,19.607,0,0,1,186.88.657,21.1,21.1,0,0,1,176.4-1.935a18.24,18.24,0,0,1-7.227-7.336,22.479,22.479,0,0,1-2.592-10.95,22.9,22.9,0,0,1,2.555-11.023,17.827,17.827,0,0,1,7.154-7.3A21.432,21.432,0,0,1,186.88-41.1a21.262,21.262,0,0,1,10.329,2.482,17.468,17.468,0,0,1,7.081,7.045A21.318,21.318,0,0,1,206.809-21.1Zm-10.585-2.92a8.1,8.1,0,0,0-2.847-6.314,10.086,10.086,0,0,0-6.789-2.373,9.277,9.277,0,0,0-6.387,2.3,10.11,10.11,0,0,0-3.175,6.388Zm40.442-17.009a15.588,15.588,0,0,1,11.68,4.563Q252.8-31.9,252.8-23.725V0h-10.22V-22.338q0-4.818-2.409-7.41a8.532,8.532,0,0,0-6.57-2.591,8.742,8.742,0,0,0-6.68,2.591q-2.445,2.592-2.445,7.41V0h-10.22V-40.442h10.22v5.037a14.119,14.119,0,0,1,5.219-4.125A16.146,16.146,0,0,1,236.666-41.026Z" transform="translate(5526 1867)" fill="#fff"/>
      <path id="Path_28" data-name="Path 28" d="M44.16-46.348V-33.8H42.93A19.8,19.8,0,0,0,40.5-40.042a9.345,9.345,0,0,0-3.657-3.025,11.708,11.708,0,0,0-4.546-.615H28.848V-7.93a14.6,14.6,0,0,0,.393,4.443,3.525,3.525,0,0,0,1.538,1.555,6.222,6.222,0,0,0,3.127.667h1.538V0H11.177V-1.265h1.538a6.408,6.408,0,0,0,3.247-.718,3.268,3.268,0,0,0,1.4-1.641,14.082,14.082,0,0,0,.376-4.307V-43.682H14.39q-4.683,0-6.8,1.982a13.111,13.111,0,0,0-3.76,7.9h-1.3V-46.348ZM69.692-17.124H52.158q.308,6.357,3.384,10.049a7.149,7.149,0,0,0,5.674,2.837,6.454,6.454,0,0,0,3.726-1.145A14.46,14.46,0,0,0,68.53-9.5l1.162.752q-2.6,5.3-5.742,7.5a12.363,12.363,0,0,1-7.28,2.2Q49.561.957,45.9-4.512a19.291,19.291,0,0,1-2.939-10.937q0-8,4.324-12.732a13.324,13.324,0,0,1,10.134-4.734,10.979,10.979,0,0,1,8.425,3.982Q69.419-24.951,69.692-17.124Zm-8.408-2.29a31.507,31.507,0,0,0-.6-7.554,6.186,6.186,0,0,0-1.863-3.11,2.841,2.841,0,0,0-1.914-.615A3.36,3.36,0,0,0,54-28.95q-2.017,3.042-2.017,8.34v1.2ZM99.771-8.237l1.06.82a15.941,15.941,0,0,1-5.623,6.306A13.455,13.455,0,0,1,88.047.957a12.388,12.388,0,0,1-10.22-4.819A18.054,18.054,0,0,1,74-15.449a19.456,19.456,0,0,1,3.486-11.484,13.4,13.4,0,0,1,11.587-5.981,11.729,11.729,0,0,1,7.878,2.5,7.254,7.254,0,0,1,2.922,5.571,4.17,4.17,0,0,1-1.179,3.11A4.217,4.217,0,0,1,95.6-20.576a4.486,4.486,0,0,1-3.333-1.333q-1.316-1.333-1.624-4.751a5.215,5.215,0,0,0-.991-3.008,2.433,2.433,0,0,0-1.846-.854A3.343,3.343,0,0,0,85-28.779q-1.777,2.632-1.777,8.066a26.032,26.032,0,0,0,1.436,8.63,13.27,13.27,0,0,0,3.931,6.135,7,7,0,0,0,4.443,1.47,6.767,6.767,0,0,0,3.179-.786A14.628,14.628,0,0,0,99.771-8.237Zm18.047-38.11v18.491a19.547,19.547,0,0,1,4.819-3.914,9.68,9.68,0,0,1,4.546-1.145,7.978,7.978,0,0,1,5.144,1.709,8.146,8.146,0,0,1,2.837,4.016,29.969,29.969,0,0,1,.7,7.776V-6.938q0,3.657.684,4.563a3.933,3.933,0,0,0,2.769,1.145V0h-16.2V-1.23A3.7,3.7,0,0,0,125.679-2.6q.615-.889.615-4.341V-21.191a23.234,23.234,0,0,0-.308-4.973,3.029,3.029,0,0,0-1.042-1.572,2.653,2.653,0,0,0-1.658-.564,4.5,4.5,0,0,0-2.666.94,12.147,12.147,0,0,0-2.8,3.3V-6.938q0,3.418.513,4.272A3.335,3.335,0,0,0,121-1.23V0h-16.2V-1.23a3.971,3.971,0,0,0,2.871-1.3q.581-.752.581-4.409V-39.409q0-3.623-.667-4.512a4.057,4.057,0,0,0-2.786-1.162v-1.265Z" transform="translate(5855 1865)" fill="#02205f"/>
      <path id="Subtraction_15" data-name="Subtraction 15" d="M-81.732,64.072h0c-.561-7.923-8.028-14.129-17-14.129a18.773,18.773,0,0,0-8.36,1.94,14.131,14.131,0,0,1,5.074-4.986A14.3,14.3,0,0,1-94.888,45a14.165,14.165,0,0,1,10,4.082,13.74,13.74,0,0,1,4.144,9.854A13.688,13.688,0,0,1-81.732,64.072Z" transform="matrix(0.999, 0.052, -0.052, 0.999, 5865.979, 1776.713)" fill="#6da944"/>
    </g>
  </g>
</svg>
