<svg xmlns="http://www.w3.org/2000/svg" width="467.779" height="319.88" viewBox="0 0 467.779 319.88">
  <g id="auditing" transform="translate(-175 -208)">
    <path id="Path_17" data-name="Path 17" d="M749.5,1924.06H448.628c-37.454,4.284-60.573,10.16-60.573,16.641,0,13.107,94.476,23.73,211.011,23.73s211.009-10.623,211.009-23.73c0-6.481-23.121-12.357-60.574-16.641Z" transform="translate(-178.353 -1436.551)" fill="#a4b0bc"/>
    <path id="Path_18" data-name="Path 18" d="M710.495,488c1.795-5.712-.023-12.807-2.991-18.361-3.925-7.334-9.579-14.13-10.514-22.414C695.212,431.5,711,418.191,710.353,402.373c-.779-18.863-24.166-31-24.249-49.873-.081-17.681,20.705-31.317,17.8-48.751-2.595-15.617-21.467-21.3-32.908-32.117-11.239-10.631-13.273-28.992-25.139-38.95-9.392-7.887-19.822-13.614-32.369-13.935-8.248-.209-15.135,2.318-22.941,4.306-20.106,5.106-40.669-8.889-59.855-12.874a108.212,108.212,0,0,0-45.844.576c-10.737,2.49-21.1,6.317-31.756,9.128-10.827,2.856-19.583,2.878-30.492.493-25.5-5.562-64.678,10.467-82.624,25.792-19.9,16.993-20.787,38.92-30.178,63.517-9.092,23.8-11.418,49.962-21.856,73.205-5.75,12.814-13.863,24.477-19.075,37.522a93.463,93.463,0,0,0-.314,67.614H710.495V488Z" transform="translate(-73.151 0)" fill="#c7d3dd"/>
    <path id="Path_19" data-name="Path 19" d="M1195.4,1495.844a3.3,3.3,0,0,0,3.1-4.486c-2.52-6.2-9.639-10.452-16.413-12.485-11.92-3.573-24.57-3.513-37.006-4.075s-25.235-1.883-36.152-7.849a39.633,39.633,0,0,1-9.675-7.462v-74.8h-18.125v74.8a39.284,39.284,0,0,1-9.675,7.462c-10.918,5.966-23.727,7.289-36.152,7.849s-25.08.494-37.006,4.075c-6.768,2.033-13.893,6.287-16.413,12.485a3.294,3.294,0,0,0,3.1,4.486H989.9l-.261-.044a5.971,5.971,0,0,1,3.634-4.517c1.839-.852,3.894-2.235,5.914-2.414,9.914-.875,172.089-.875,182.005,0,2.018.179,4.075,1.562,5.914,2.414a5.968,5.968,0,0,1,3.634,4.517l-.262.044h4.912Z" transform="translate(-675.259 -985.032)" fill="#022a44"/>
    <path id="Path_20" data-name="Path 20" d="M1625.167,1690.02h-.1a5.182,5.182,0,0,0-5.183,5.181v21.785a5.182,5.182,0,0,0,5.183,5.181h.1a5.181,5.181,0,0,0,5.181-5.181V1695.2A5.181,5.181,0,0,0,1625.167,1690.02Z" transform="translate(-1209.54 -1240.631)" fill="#352f6c"/>
    <path id="Path_21" data-name="Path 21" d="M805.963,584.7a1293.964,1293.964,0,0,0-382.873,0,5.59,5.59,0,0,1-6.431-5.525V347.6a5.589,5.589,0,0,1,6.431-5.525,1293.748,1293.748,0,0,0,382.873,0,5.589,5.589,0,0,1,6.43,5.525V579.168a5.589,5.589,0,0,1-6.43,5.525Z" transform="translate(-202.298 -112.188)" fill="#022a44"/>
    <path id="Path_22" data-name="Path 22" d="M822.1,612.324a1246.7,1246.7,0,0,0-381.209,0V376.738a1246.685,1246.685,0,0,0,381.209,0Z" transform="translate(-222.582 -141.254)" fill="#a4b0bc"/>
    <path id="Path_23" data-name="Path 23" d="M2230.251,440.034h-90.1v53.08h90.1Z" transform="translate(-1645.07 -194.241)" fill="#92a1ad"/>
    <path id="Path_24" data-name="Path 24" d="M461.277,363.978V599.571q15.153-2.331,30.328-4.29L550.683,374.5Q505.909,370.841,461.277,363.978Z" transform="translate(-239.649 -130.573)" fill="#c7d3dd"/>
    <path id="Path_25" data-name="Path 25" d="M525.364,779.619a69.46,69.46,0,0,1-31.315-4.815c-14.566-6.333-23.142-19.161-32.818-30.6V845.482a1246.693,1246.693,0,0,1,381.207,0V657.736c-91.627,39.115-182.849,74.627-276.121,110.646-13.654,5.623-26.5,10.437-40.953,11.237Z" transform="translate(-239.61 -376.484)" fill="#92a1ad"/>
    <path id="Path_26" data-name="Path 26" d="M1294.538,446.919H1134.51V606.338h160.028Z" transform="translate(-803.227 -200.004)" fill="#708491"/>
    <path id="Path_27" data-name="Path 27" d="M565.548,650.8H458.661v87.657H565.548Z" transform="translate(-237.459 -370.682)" fill="#92a1ad"/>
    <path id="Path_28" data-name="Path 28" d="M2249.739,848.541h-107.3v91.582h107.3Z" transform="translate(-1646.986 -536.211)" fill="#708491"/>
    <path id="Path_29" data-name="Path 29" d="M2317.859,801.677H2176v93.667h141.859Z" transform="translate(-1675.08 -496.98)" fill="#352f6c"/>
    <path id="Path_30" data-name="Path 30" d="M2273.271,869.517a16.238,16.238,0,1,0,16.24,16.238A16.24,16.24,0,0,0,2273.271,869.517Zm0,26.069a9.831,9.831,0,1,1,9.833-9.831A9.835,9.835,0,0,1,2273.271,895.586Z" transform="translate(-1742.912 -553.77)" fill="#ffd255"/>
    <path id="Path_31" data-name="Path 31" d="M2273.3,980.579a9.827,9.827,0,0,1-9.825-9.532h-6.409a16.236,16.236,0,0,0,32.466,0h-6.408a9.827,9.827,0,0,1-9.825,9.532Z" transform="translate(-1742.946 -638.763)" fill="#7d95c9"/>
    <path id="Path_32" data-name="Path 32" d="M2390.895,882.185l-2.8,5.779a9.833,9.833,0,0,1,4.719,8.4c0,.1,0,.2-.006.3h6.407c0-.1.007-.194.007-.3A16.229,16.229,0,0,0,2390.895,882.185Z" transform="translate(-1852.625 -564.375)" fill="#2070b4"/>
    <path id="Path_33" data-name="Path 33" d="M2509.231,869.517a16.238,16.238,0,1,0,16.241,16.238A16.24,16.24,0,0,0,2509.231,869.517Zm0,26.069a9.831,9.831,0,1,1,9.833-9.831A9.835,9.835,0,0,1,2509.231,895.586Z" transform="translate(-1940.439 -553.77)" fill="#ffd255"/>
    <path id="Path_34" data-name="Path 34" d="M2547.78,875.924a9.828,9.828,0,0,1,7.291,3.237l4.733-4.314a16.222,16.222,0,0,0-20.764-2.774l3.963,5.1a9.789,9.789,0,0,1,4.771-1.241Z" transform="translate(-1978.989 -553.77)" fill="#ffd255"/>
    <path id="Path_35" data-name="Path 35" d="M2525.492,898.3a16.186,16.186,0,0,0-4.2-10.31l-4.733,4.314a9.838,9.838,0,0,1,2.526,6Zm-20.99-7.984-3.963-5.1a16.215,16.215,0,0,0-7.484,13.083c0,.194-.014.4-.014.6a16.154,16.154,0,0,0,4.269,10.968l4.733-4.315a9.81,9.81,0,0,1-2.595-6.653c0-.2.008-.4.023-.6a9.837,9.837,0,0,1,5.04-7.992Z" transform="translate(-1940.481 -566.911)" fill="#7d95c9"/>
    <path id="Path_36" data-name="Path 36" d="M2645.757,966.137c0-.2-.006-.4-.015-.6h-6.407c.015.195.023.4.023.6a9.779,9.779,0,0,1-2.677,6.736l3.963,5.09a16.187,16.187,0,0,0,5.123-11.826Z" transform="translate(-2060.725 -634.152)" fill="#2070b4"/>
    <path id="Path_37" data-name="Path 37" d="M2745.2,869.517a16.238,16.238,0,1,0,16.241,16.238A16.239,16.239,0,0,0,2745.2,869.517Zm0,26.069a9.831,9.831,0,1,1,9.831-9.831A9.835,9.835,0,0,1,2745.2,895.586Z" transform="translate(-2137.975 -553.77)" fill="#ffd255"/>
    <path id="Path_38" data-name="Path 38" d="M2865.055,907.388a9.816,9.816,0,0,1-4.665,8.365l4.463,4.7a16.234,16.234,0,0,0,1.272-25.1l-4.621,4.471A9.811,9.811,0,0,1,2865.055,907.388Z" transform="translate(-2247.998 -575.403)" fill="#7d95c9"/>
    <path id="Path_39" data-name="Path 39" d="M2246.86,1252.04h-18.2v2.684h18.2Z" transform="translate(-1719.163 -873.988)" fill="#faa701"/>
    <path id="Path_40" data-name="Path 40" d="M2238.043,1288.4h-9.383v1.092h9.383Zm7.515,0h-5.989v1.092h5.989Zm-3.388,2.907v.725h-.613v-.725h-9.691v1.091H2246.3v-1.091Zm-11.066,0h-2.445v1.091h2.445Zm18.05,0h-2.295v1.091h2.295Zm-1.526,2.909H2228.66v1.091h18.969Zm-5.152,2.915H2228.66v1.091h13.817Zm6.67,0h-5.756v1.091h5.756Z" transform="translate(-1719.163 -904.426)" fill="#a4b0bc"/>
    <path id="Path_41" data-name="Path 41" d="M2330.905,1100.3h-11.4v2.707h11.4Z" transform="translate(-1795.215 -746.964)" fill="#92a1ad"/>
    <path id="Path_42" data-name="Path 42" d="M2330.777,1130.36H2319.33v.748h11.447Zm0,3.126H2319.33v.748h11.447Z" transform="translate(-1795.065 -772.127)" fill="#ffd255"/>
    <path id="Path_43" data-name="Path 43" d="M2569.115,1100.3h-11.4v2.707h11.4Z" transform="translate(-1994.626 -746.964)" fill="#92a1ad"/>
    <path id="Path_44" data-name="Path 44" d="M2568.987,1130.36H2557.54v.748h11.447Zm0,3.126H2557.54v.748h11.447Z" transform="translate(-1994.476 -772.127)" fill="#ffd255"/>
    <path id="Path_45" data-name="Path 45" d="M2807.326,1100.3h-11.4v2.707h11.4Z" transform="translate(-2194.037 -746.964)" fill="#92a1ad"/>
    <path id="Path_46" data-name="Path 46" d="M2807.2,1130.36H2795.75v.748H2807.2Zm0,3.126H2795.75v.748H2807.2Z" transform="translate(-2193.886 -772.127)" fill="#ffd255"/>
    <path id="Path_47" data-name="Path 47" d="M1308.072,303.85H1153.65V476.734h154.422Z" transform="translate(-819.249 -80.238)" fill="#fff"/>
    <path id="Path_48" data-name="Path 48" d="M1368.53,338.32H1329.2v4.486h39.33Zm74.512,0h-17.25v4.486h17.25Zm0,10.437h-17.25v1.48h17.25Z" transform="translate(-966.206 -109.094)" fill="#e8e9eb"/>
    <path id="Path_49" data-name="Path 49" d="M1241.522,906.925a11.431,11.431,0,1,0,11.433,11.431A11.431,11.431,0,0,0,1241.522,906.925Zm0,18.346a6.923,6.923,0,1,1,6.924-6.922A6.922,6.922,0,0,1,1241.522,925.271Z" transform="translate(-883.239 -585.085)" fill="#ffd255"/>
    <path id="Path_50" data-name="Path 50" d="M1276.832,913.788a4.56,4.56,0,1,0,4.56,4.56A4.561,4.561,0,0,0,1276.832,913.788Zm0,8.582a4.022,4.022,0,1,1,4.023-4.022A4.023,4.023,0,0,1,1276.832,922.37Zm25.34-15.445a11.431,11.431,0,1,0,11.432,11.431,11.432,11.432,0,0,0-11.432-11.431Zm0,18.346a6.923,6.923,0,1,1,6.924-6.922A6.922,6.922,0,0,1,1302.173,925.271Z" transform="translate(-918.548 -585.085)" fill="#ffd255"/>
    <path id="Path_51" data-name="Path 51" d="M1283.848,949.061a4.56,4.56,0,1,0,4.561,4.56A4.561,4.561,0,0,0,1283.848,949.061Zm0,8.582a4.022,4.022,0,1,1,4.021-4.021A4.023,4.023,0,0,1,1283.848,957.643Zm-33.193,31.183-.275-.687,39.091-15.917,8.494,3.753,10.468-15.094,7.022,4.411,7.626-10.945.614.426-8.031,11.535-7.028-4.419L1298.227,976.9l-8.771-3.872-38.8,15.8Z" transform="translate(-900.224 -620.358)" fill="#ffd255"/>
    <path id="Path_52" data-name="Path 52" d="M1330.686,1059.223h-6.856v27.429h6.856Zm11.12,4.253h-6.857v23.176h6.857Zm11.112-4.963h-6.857v28.139h6.857Zm11.118,7.805h-6.857v20.334h6.857Zm11.112-19.155h-6.857v39.488h6.857Zm11.118-3.784h-6.856v43.272h6.856Z" transform="translate(-961.71 -699.315)" fill="#7d95c9"/>
    <path id="Path_53" data-name="Path 53" d="M1348.875,452.427h-8.935v67.935h8.935Zm12.98,0h-8.934v67.935h8.934Zm12.973,0h-8.935v67.935h8.935Zm12.982,0h-8.936v67.935h8.936Zm12.98,0h-8.935v67.935h8.935Zm12.981,0h-8.936v67.935h8.936Zm12.98,0h-8.936v67.935h8.936Zm12.973,0h-8.936v67.935h8.936Zm12.981,0h-8.935v67.935h8.935Z" transform="translate(-975.196 -204.615)" fill="#e8e9eb"/>
    <path id="Path_54" data-name="Path 54" d="M1357.952,480.38h-1.122v62.978h1.122Zm13.086,0h-1.122v62.978h1.122Zm13.086,0H1383v62.978h1.122Zm13.078,0h-1.122v62.978h1.122Zm13.086,0h-1.122v62.978h1.122Zm13.084,0h-1.12v62.978h1.12Zm13.086,0h-1.122v62.978h1.122Zm13.086,0h-1.122v62.978h1.122Zm13.086,0h-1.122v62.978h1.122Z" transform="translate(-989.335 -228.015)" fill="#fff"/>
    <path id="Path_55" data-name="Path 55" d="M1351.763,617.585h-4.113v31.4h4.113Zm13.086,0h-4.113v31.4h4.113Zm13.086,10.19h-4.113v21.21h4.113Zm13.086-21.217h-4.113v42.427h4.113Z" transform="translate(-981.651 -333.641)" fill="#faa701"/>
    <path id="Path_56" data-name="Path 56" d="M1592.783,606.558h-4.113v8.867h4.113Z" transform="translate(-1183.414 -333.641)" fill="#ffd255"/>
    <path id="Path_57" data-name="Path 57" d="M1673.073,566.4h-4.113v48.961h4.113Zm13.084,17.569h-4.111v31.4h4.111Zm13.086-12.9h-4.113v44.3h4.113Z" transform="translate(-1250.626 -300.021)" fill="#faa701"/>
    <path id="Path_58" data-name="Path 58" d="M1833.743,595.083h-4.113V598.1h4.113Z" transform="translate(-1385.126 -324.036)" fill="#ffd255"/>
    <path id="Path_59" data-name="Path 59" d="M1914.083,624.918h-4.113v39.436h4.113Zm13.086,8.037h-4.113v31.4h4.113Z" transform="translate(-1452.381 -349.011)" fill="#faa701"/>
    <path id="Path_60" data-name="Path 60" d="M1270.123,540.667h-8.4v2.43h8.4Zm0-10.048h-8.4v2.43h8.4Zm0-10.048h-8.4V523h8.4Zm0-10.048h-8.4v2.43h8.4Zm0-10.048h-8.4v2.43h8.4Zm0-10.048h-8.4v2.43h8.4Zm0-10.048h-8.4v2.43h8.4Z" transform="translate(-909.717 -228.015)" fill="#e8e9eb"/>
    <path id="Path_61" data-name="Path 61" d="M1348.875,432.69h-8.935v.957h8.935Zm12.98,0h-8.934v.957h8.934Zm12.973,0h-8.935v.957h8.935Zm12.982,0h-8.936v.957h8.936Zm12.98,0h-8.935v.957h8.935Zm12.981,0h-8.936v.957h8.936Zm12.98,0h-8.936v.957h8.936Zm12.973,0h-8.936v.957h8.936Zm12.981,0h-8.935v.957h8.935Z" transform="translate(-975.196 -188.093)" fill="#a4b0bc"/>
    <path id="Path_62" data-name="Path 62" d="M320.613,607.2H175v87.656H320.613Z" transform="translate(0 -334.18)" fill="#fff"/>
    <path id="Path_63" data-name="Path 63" d="M812.075,706.753a21.778,21.778,0,1,0-21.781-21.778A21.779,21.779,0,0,0,812.075,706.753Z" transform="translate(-515.076 -381.056)" fill="#faa701"/>
    <path id="Path_64" data-name="Path 64" d="M843.929,663.2a21.7,21.7,0,0,0-15.485,6.549l14.491,15.55,10.184-20.1A21.817,21.817,0,0,0,843.929,663.2Z" transform="translate(-547.011 -381.056)" fill="#ffd255"/>
    <path id="Path_65" data-name="Path 65" d="M937.2,684.057a21.939,21.939,0,0,0-9.609-8.65l-10.184,20.1.209.224L937.2,684.049Z" transform="translate(-621.488 -391.276)" fill="#352f6c"/>
    <path id="Path_66" data-name="Path 66" d="M796.507,703.367a21.768,21.768,0,0,0-3.126,26.406l17.362-10.362.254-.5-14.491-15.55Z" transform="translate(-515.075 -414.677)" fill="#7d95c9"/>
    <path id="Path_67" data-name="Path 67" d="M916.1,798.878l-.254.5.464-.276Z" transform="translate(-620.181 -494.637)" fill="#faa701"/>
    <path id="Path_68" data-name="Path 68" d="M883.816,816.313l-14.962-16.059-.464.277-9.234,18.227a21.786,21.786,0,0,0,24.661-2.452Z" transform="translate(-572.721 -495.789)" fill="#352f6c"/>
    <path id="Path_69" data-name="Path 69" d="M809.254,812.315a21.874,21.874,0,0,0,8.128,7.865l9.234-18.227Z" transform="translate(-530.948 -497.211)" fill="#e8e9eb"/>
    <path id="Path_70" data-name="Path 70" d="M938.28,728.513,918.7,740.2l14.962,16.059a21.765,21.765,0,0,0,4.621-27.736Z" transform="translate(-622.565 -435.733)" fill="#7d95c9"/>
    <path id="Path_71" data-name="Path 71" d="M845.894,733.988a15.2,15.2,0,1,0-15.2-15.2A15.2,15.2,0,0,0,845.894,733.988Z" transform="translate(-548.895 -414.869)" fill="#fff"/>
    <path id="Path_72" data-name="Path 72" d="M856.308,742.375A13.173,13.173,0,1,1,869.483,729.2,13.19,13.19,0,0,1,856.308,742.375Zm0-25.605a12.425,12.425,0,1,0,12.427,12.425A12.44,12.44,0,0,0,856.308,716.769Zm5.967,39h-6.468v1.488h6.468Z" transform="translate(-559.308 -425.282)" fill="#faa701"/>
    <path id="Path_73" data-name="Path 73" d="M930.532,984.4h-9.586v1.488h9.586Zm5.989,0H931.8v1.488h4.718Zm3.4,0H936.9v1.488h3.021Zm-14.4,3.97h-4.576v1.487h4.576Zm13,0H926.756v1.487h11.762Zm1.406,3.969H934.54v1.487h5.383Zm-5.9,0H920.946v1.487h13.078Zm-4.816,3.969h-8.262V997.8h8.262Zm4.816,0H930.48V997.8h3.545Zm2.572,0H934.54V997.8H936.6Z" transform="translate(-624.447 -649.945)" fill="#a4b0bc"/>
    <path id="Path_74" data-name="Path 74" d="M294.54,1037.1H277.97v1.016h16.57Z" transform="translate(-86.198 -694.057)" fill="#faa701"/>
    <path id="Path_75" data-name="Path 75" d="M297.9,1053.76H277.97v1.016H297.9Zm0,2.705H285.589v1.018H297.9Zm-14.125,0h-5.81v1.018h5.81Zm14.125,2.715H277.97v1.016H297.9Zm0,2.713H277.97v1.016H297.9Z" transform="translate(-86.198 -708.004)" fill="#a4b0bc"/>
    <path id="Path_76" data-name="Path 76" d="M276.422,694.777h-.748v48.736h.748Zm13.863,0h-.748v48.736h.748Zm13.863,0H303.4v48.736h.748Zm13.863,0h-.748v48.736h.748Zm13.863,0h-.748v48.736h.748Zm13.863,0h-.748v48.736h.748Z" transform="translate(-84.276 -407.491)" fill="#022a44"/>
    <path id="Path_77" data-name="Path 77" d="M268.615,767.511h-4.509v29.373h4.509Zm13.99,10.078H278.1v19.3H282.6Zm13.751-8.47h-4.509v27.766h4.509ZM310.2,758.532h-4.509v38.352H310.2Zm13.863,16.193h-4.509v22.159h4.509Z" transform="translate(-74.593 -460.862)" fill="#a4b0bc"/>
    <path id="Path_78" data-name="Path 78" d="M301.147,999.643H219.622v.62h81.525Z" transform="translate(-37.354 -662.701)" fill="#e8e9eb"/>
    <path id="Path_79" data-name="Path 79" d="M683.743,717.459l-4.77-8.269-4.778,8.269h2.52v38.12h4.509v-38.12Z" transform="translate(-417.887 -419.557)" fill="#ffd255"/>
    <path id="Path_80" data-name="Path 80" d="M225.485,725.99a.568.568,0,0,1-.568.568h-4.681a.568.568,0,1,1,0-1.136h4.681a.568.568,0,0,1,.568.568Zm0-8.126a.568.568,0,0,1-.568.568h-4.681a.568.568,0,1,1,0-1.136h4.681a.568.568,0,0,1,.568.568Zm0-8.119a.568.568,0,0,1-.568.568h-4.681a.568.568,0,1,1,0-1.136h4.681a.568.568,0,0,1,.568.568Zm0-8.119a.568.568,0,0,1-.568.568h-4.681a.568.568,0,1,1,0-1.136h4.681a.568.568,0,0,1,.568.568Zm0-8.119a.568.568,0,0,1-.568.568h-4.681a.568.568,0,1,1,0-1.136h4.681a.568.568,0,0,1,.568.568Zm0-8.126a.568.568,0,0,1-.568.568h-4.681a.568.568,0,1,1,0-1.136h4.681a.568.568,0,0,1,.568.568Zm0-8.119a.568.568,0,0,1-.568.568h-4.681a.568.568,0,1,1,0-1.136h4.681a.568.568,0,0,1,.568.568Z" transform="translate(-37.393 -392.353)" fill="#e8e9eb"/>
    <path id="Path_81" data-name="Path 81" d="M2267.006,362.1H2176v60.085h91.006Z" transform="translate(-1675.08 -128.997)" fill="#fff"/>
    <path id="Path_82" data-name="Path 82" d="M2237.86,470.141h-7.82v22h7.82Zm9.847,6.684h-7.82v15.319h7.82Zm9.841-15.311h-7.822v30.637h7.822Zm9.847,8.627h-7.821v22h7.821Zm9.848-8.627h-7.822v30.637h7.822Zm9.839,2.43h-7.821v28.2h7.821Zm9.848-6.1h-7.822v34.3h7.822Z" transform="translate(-1720.318 -209.149)" fill="#7d95c9"/>
    <path id="Path_83" data-name="Path 83" d="M2237.86,553.152h-7.82v2.206h7.82Zm9.847-6.609h-7.82v8.807h7.82Zm9.841,4.4h-7.822v4.4h7.822Zm9.847-4.4h-7.821v8.807h7.821Zm9.848-5.293h-7.822v14.1h7.822Zm9.839,5.293h-7.821v8.807h7.821Zm9.848-13.2h-7.822v22h7.822Z" transform="translate(-1720.318 -272.356)" fill="#2070b4"/>
    <path id="Path_84" data-name="Path 84" d="M2636.175,378.712H2623.83v1.817h12.345Z" transform="translate(-2049.969 -142.907)" fill="#faa701"/>
    <path id="Path_85" data-name="Path 85" d="M2630.192,403.36h-6.362v.74h6.362Zm5.1,0h-4.059v.74h4.059ZM2633,405.334v.493h-.419v-.493h-6.572v.74h9.788v-.74Zm-7.507,0h-1.66v.74h1.66Zm12.24,0h-1.555v.74h1.555Z" transform="translate(-2049.968 -163.54)" fill="#a4b0bc"/>
    <path id="Path_86" data-name="Path 86" d="M911.415,440.631h-4.792a.763.763,0,0,0-.764.763v.015a.763.763,0,0,0,.764.763h4.792a.763.763,0,0,0,.764-.763v-.015A.763.763,0,0,0,911.415,440.631Zm9.789,0H916.41a.762.762,0,0,0-.762.763v.015a.762.762,0,0,0,.762.763H921.2a.763.763,0,0,0,.762-.763v-.015A.763.763,0,0,0,921.2,440.631Zm9.84,0H926.25a.763.763,0,0,0-.762.763v.015a.763.763,0,0,0,.762.763h4.793a.762.762,0,0,0,.762-.763v-.015a.762.762,0,0,0-.762-.763Zm9.848,0H936.1a.763.763,0,0,0-.762.763v.015a.763.763,0,0,0,.762.763h4.793a.763.763,0,0,0,.762-.763v-.015A.763.763,0,0,0,940.891,440.631Zm9.848,0h-4.793a.763.763,0,0,0-.762.763v.015a.763.763,0,0,0,.762.763h4.793a.763.763,0,0,0,.762-.763v-.015A.763.763,0,0,0,950.738,440.631Zm9.84,0h-4.792a.763.763,0,0,0-.764.763v.015a.763.763,0,0,0,.764.763h4.792a.762.762,0,0,0,.762-.763v-.015a.762.762,0,0,0-.762-.763Zm9.668,0h-4.794a.763.763,0,0,0-.762.763v.015a.763.763,0,0,0,.762.763h4.794a.762.762,0,0,0,.762-.763v-.015a.762.762,0,0,0-.762-.763ZM650.091,587.94c.292.8.082,1.741.494,2.482a2.2,2.2,0,0,0,1.862,1.016,6.03,6.03,0,0,0,2.161-.433,38.177,38.177,0,0,0,3.791-1.541,5.451,5.451,0,0,0,2.363-1.727,6.151,6.151,0,0,0,.74-3.073,90.017,90.017,0,0,1,2.124-14.188,11.654,11.654,0,0,0,.471-3.5,3.628,3.628,0,0,0-1.675-2.96,4.316,4.316,0,0,0-2.221-.4,4.783,4.783,0,0,0-2.871.883c-1.159.933-1.473,2.534-1.862,3.976a23.388,23.388,0,0,1-4.98,9.369,18.52,18.52,0,0,0-2.647,3.341,4.093,4.093,0,0,0-.082,4.075c.658.994,1.907,1.562,2.31,2.676l.022.008Z" transform="translate(-395.331 -194.74)" fill="#faa701"/>
    <path id="Path_87" data-name="Path 87" d="M662.4,1308.607a4.086,4.086,0,0,1-1.077,2.788,5.988,5.988,0,0,1-2.931,1.279,3.041,3.041,0,0,1-4.367-2.407,12.365,12.365,0,0,1-.9-3.2,4.251,4.251,0,0,1,.823-3.132,3.853,3.853,0,0,1,2.43-1.256,5.238,5.238,0,0,1,4.374,1.547A6,6,0,0,1,662.4,1308.607Z" transform="translate(-400.235 -916.343)" fill="#022a44"/>
    <path id="Path_88" data-name="Path 88" d="M632.677,1313.469c-1.682.612-3.544-.046-5.1-.972a16.446,16.446,0,0,1-4.89-4.515,6.24,6.24,0,0,0,3.484-4.442,16.193,16.193,0,0,0,4.471,1.272,6.205,6.205,0,0,1,4,2.3,4.436,4.436,0,0,1,.508,3.709A4.161,4.161,0,0,1,632.677,1313.469Z" transform="translate(-374.768 -917.1)" fill="#e7a988"/>
    <path id="Path_89" data-name="Path 89" d="M639.908,1307.107a6.253,6.253,0,0,0-4-2.3,15.987,15.987,0,0,1-4.471-1.264,6.35,6.35,0,0,1-2.46,3.844c3.155,2.183,8.247,1.808,9.608,4.538a4.19,4.19,0,0,1,.411.95,4.185,4.185,0,0,0,1.421-2.057A4.424,4.424,0,0,0,639.908,1307.107Z" transform="translate(-380.033 -917.1)" fill="#d88568"/>
    <path id="Path_90" data-name="Path 90" d="M618.926,1166.76l-4.96,1.277,9.43,36.643,4.96-1.277Z" transform="translate(-367.468 -802.599)" fill="#022a44"/>
    <path id="Path_91" data-name="Path 91" d="M615.818,1248.753a7.3,7.3,0,0,1,.179-1.4c.456-1.72,2.228-5.368,2.325-7.155,1.667,2.266.538,4.038.636,4.919a10.336,10.336,0,0,1,2.587.173c.277.067.6.21.651.508a.581.581,0,0,1-.247.546,1.481,1.481,0,0,1-.561.217,2.866,2.866,0,0,1,.778.591,1.078,1.078,0,0,1,.262.95.6.6,0,0,1-.733.463,1.614,1.614,0,0,1,.583.808c.067.344-.187.762-.509.687a.935.935,0,0,1,.135,1.137,6.14,6.14,0,0,1-.77.942,10.472,10.472,0,0,0-1.039,1.968,2.4,2.4,0,0,1-1.54,1.427,2.445,2.445,0,0,1-1.959-.866,2.756,2.756,0,0,1-.651-.814,3.167,3.167,0,0,1-.209-1.354c-.015-1.241.015-2.49.082-3.731Z" transform="translate(-368.946 -864.077)" fill="#e7a988"/>
    <path id="Path_92" data-name="Path 92" d="M636.674,1272.346a2.976,2.976,0,0,0-.778-.59,1.537,1.537,0,0,0,.561-.217.584.584,0,0,0,.247-.546c-.052-.3-.374-.441-.651-.51a9.01,9.01,0,0,0-2.146-.179c1.129,3.619,1.234,7.216-.845,10.415a2.4,2.4,0,0,0,1.54-1.428,10.512,10.512,0,0,1,1.039-1.966,5.8,5.8,0,0,0,.77-.942.915.915,0,0,0-.135-1.137c.314.075.576-.344.509-.687a1.545,1.545,0,0,0-.583-.808.6.6,0,0,0,.733-.463,1.131,1.131,0,0,0-.262-.95Z" transform="translate(-383.454 -889.277)" fill="#d88568"/>
    <path id="Path_93" data-name="Path 93" d="M639.406,1287.607a6.272,6.272,0,0,0-2.811-.764l.015-.373a6.707,6.707,0,0,1,2.983.808l-.18.329Zm0,1.36a8.769,8.769,0,0,0-2.9-.629l.015-.373a8.955,8.955,0,0,1,3.028.65l-.142.344Zm-.658,2.22a1.336,1.336,0,0,1-.808-.994.514.514,0,0,0-.045-.173.437.437,0,0,0-.112-.023,4.8,4.8,0,0,0-1.084.054l-.06-.367a4.375,4.375,0,0,1,1.174-.052.5.5,0,0,1,.337.119.613.613,0,0,1,.157.352.984.984,0,0,0,.583.748l-.142.344v-.008Z" transform="translate(-386.336 -902.81)" fill="#022a44"/>
    <path id="Path_94" data-name="Path 94" d="M740.019,1080.988c1.57-.187,3.492-1.212,5.017-1.668.426,2.026,1.406,7.185,2.744,9.608l.524.769a32.419,32.419,0,0,1-11.859,5.406C741.507,1092.277,739.8,1085.9,740.019,1080.988Z" transform="translate(-469.998 -729.401)" fill="#e7a988"/>
    <path id="Path_95" data-name="Path 95" d="M744.281,1080.93a21.739,21.739,0,0,1-4.262,1.414c-.217,4.911,1.488,11.281-3.574,14.114a48.989,48.989,0,0,0,5.167-1.681,31.158,31.158,0,0,0,2.677-13.846Z" transform="translate(-469.998 -730.749)" fill="#d88568"/>
    <path id="Path_96" data-name="Path 96" d="M761.459,1080.29a24.544,24.544,0,0,1-4.539,1.51c.1,2.1.381,4.478.322,6.743C760.659,1087.833,761.2,1083.864,761.459,1080.29Z" transform="translate(-487.138 -730.213)" fill="#022a44"/>
    <path id="Path_97" data-name="Path 97" d="M730.112,1137.709a6.253,6.253,0,0,0-2.43,1.839c-.987,1.4-.867,3.267-1.383,4.9a19.364,19.364,0,0,1,7.32-4.5,46.355,46.355,0,0,1,8.419-2,1.791,1.791,0,0,0-.92-1.816,4.35,4.35,0,0,0-2.094-.494,18.536,18.536,0,0,0-8.913,2.087Z" transform="translate(-461.504 -776.53)" fill="#352f6c"/>
    <path id="Path_98" data-name="Path 98" d="M722.39,1021.524a9.634,9.634,0,0,0-5.66-3.3l-1.436-.029c-.89,1.031-1.413,1.1-2.116,2.287l-.217.927a2.372,2.372,0,0,1-1.182,1.608,10.384,10.384,0,0,0-2.213,1.376,1.063,1.063,0,0,0-.531.806,1.083,1.083,0,0,0,.381.658c.4.412.808.8,1.226,1.182a28.412,28.412,0,0,0,.127,4.134,3.985,3.985,0,0,0,.479,2.212,2.636,2.636,0,0,0,1.78.875,10.594,10.594,0,0,0,7.619-1.839,8.04,8.04,0,0,0,3.3-4.269,7.467,7.467,0,0,0-1.57-6.637Z" transform="translate(-447.052 -678.228)" fill="#e7a988"/>
    <path id="Path_99" data-name="Path 99" d="M743.106,1021.524a9.634,9.634,0,0,0-5.66-3.3l-1.436-.029c-.89,1.031-1.413,1.1-2.116,2.287l-.112.485c.254,4.113,4.561,8.448,5.653,12.53a11.1,11.1,0,0,0,1.937-1.068,8.04,8.04,0,0,0,3.3-4.269,7.47,7.47,0,0,0-1.57-6.639l.007.008Z" transform="translate(-467.768 -678.228)" fill="#d88568"/>
    <path id="Path_100" data-name="Path 100" d="M733.186,1034.965a2.87,2.87,0,0,0,.1-.575Z" transform="translate(-467.269 -691.789)" fill="#fff"/>
    <path id="Path_101" data-name="Path 101" d="M754.164,995.375c-.553-1.039-1.151-2.055-1.8-3.035a1.988,1.988,0,0,0-1.211-1.024,2.057,2.057,0,0,0-1.443.568c-.441.329-.882.658-1.331.987a17.2,17.2,0,0,0-2.049-1.01,8.817,8.817,0,0,0-6.6.262l-1.989-.636a5.392,5.392,0,0,0-1.981,4.014,12.648,12.648,0,0,0,1.78,7.738c1.368,2.272,3.806,5.114,6.064,6.3,1.241.658,2.333.3,3.6-.171.112-.046.217-.1.329-.158a7.41,7.41,0,0,0,1.787-.912,16.724,16.724,0,0,0,4.165-4.5,8.54,8.54,0,0,0,1.862-4.89,8.354,8.354,0,0,0-1.174-3.543v.006Z" transform="translate(-469.368 -655.72)" fill="#022a44"/>
    <path id="Path_102" data-name="Path 102" d="M745.7,1013.294a5.706,5.706,0,0,0,.808,2.819c.067-.7.135-1.391.209-2.086a4.21,4.21,0,0,0,1.585.979c.1-.448.2-.889.3-1.337a1.805,1.805,0,0,0,1.017.858c.127-.283.262-.567.389-.852a.667.667,0,0,0,.71.367c.067-.254.135-.508.209-.762a.635.635,0,1,0,1.2-.366c.277.187.561.375.837.56a.357.357,0,0,0-.022-.508,6.556,6.556,0,0,0,3.3.06,5.882,5.882,0,0,1-2.139-2.916,1.212,1.212,0,0,1-.568,1.152,1.2,1.2,0,0,1-1.279-.054c-.284.314-.568.629-.86.935a1.328,1.328,0,0,0-1.144-.388,7.761,7.761,0,0,0-1.226.292,5.256,5.256,0,0,1-3.813-.51,7.222,7.222,0,0,0,.546,5.233,7.611,7.611,0,0,1-.052-3.482Z" transform="translate(-477.115 -671.464)" fill="#2070b4"/>
    <path id="Path_103" data-name="Path 103" d="M809.193,1001.6a17.735,17.735,0,0,0,.83,3.834,4.659,4.659,0,0,1-1.884-2.743,1.2,1.2,0,0,1-.1-.86c.262-.681.793.4,1.159-.231Z" transform="translate(-529.893 -664.336)" fill="#ffd255"/>
    <path id="Path_104" data-name="Path 104" d="M615.676,1708.333c3.567-1.98,5.877-5.4,7.836-8.9,2.378-29.463-.015-27.564,1.234-40.348H634.2c.389,8.03.187,15.3-1.578,22.9-1.368,5.885-2.572,10.408-3.918,17.449a11.944,11.944,0,0,0-.187,4.546,3.33,3.33,0,0,1-.075,2.624c-1.114,1.749-2.206,1.324-4.2,2.055-2.325.854-1.847,2.618-6.557,2.751a4.22,4.22,0,0,1-2.654-.508,1.418,1.418,0,0,1-.628-.866c-.172-.852.65-1.354,1.271-1.7Z" transform="translate(-367.809 -1214.73)" fill="#e7a988"/>
    <path id="Path_105" data-name="Path 105" d="M679.583,1692.473c.808-3.588,1.6-6.751,2.467-10.452,1.772-7.6,1.967-14.869,1.578-22.891h-9.451c-1.152,11.789.793,11.087-.763,34.024,3.17,1.81,4.943.627,6.169-.681Z" transform="translate(-417.233 -1214.772)" fill="#d88568"/>
    <path id="Path_106" data-name="Path 106" d="M633.3,1954.318a8.458,8.458,0,0,1-3.118,1.606,4.6,4.6,0,0,1-3.357-.4c-.142-.081-.284-.171-.419-.262.254-.209.508-.411.763-.62a.568.568,0,0,1,.3-.156.751.751,0,0,1,.322.12,3.087,3.087,0,0,0,1.443.261,9.258,9.258,0,0,0,4.068-.56Z" transform="translate(-377.881 -1461.873)" fill="#022a44"/>
    <path id="Path_107" data-name="Path 107" d="M615.676,1940.148c.351-.194.68-.419,1.009-.635a4.422,4.422,0,0,0,3.589.979c3.058-.381,5.757-2.624,8.292-4.492a3.087,3.087,0,0,1-.127,2.422c-1.114,1.749-2.206,1.323-4.2,2.056-2.325.852-1.847,2.616-6.557,2.751a4.231,4.231,0,0,1-2.654-.508,1.416,1.416,0,0,1-.628-.868c-.172-.852.65-1.352,1.271-1.7Z" transform="translate(-367.809 -1446.546)" fill="#ffd255"/>
    <path id="Path_108" data-name="Path 108" d="M668.446,1484.258c.18,4.486-.359,9.942-.531,14.436-.18,4.575-.718,9.121-.755,13.7-.09,10.742,2.557,21.658.322,32.094a17.321,17.321,0,0,0,12.2-.508c1.451-17.06,3.29-39.913,6.131-58.372-5.212.329-12.5.814-17.362-1.354Z" transform="translate(-411.995 -1068.376)" fill="#352f6c"/>
    <path id="Path_109" data-name="Path 109" d="M719.092,1509.4a18.358,18.358,0,0,1-2.639-.044,6.345,6.345,0,0,1-.15,3.1c-2.662,7.566-7.56,18.728-7.56,25.538,0,9.958.015,17.755-.164,28.378a16.63,16.63,0,0,0,5.773-1.383c1.451-17.06,1.907-37.141,4.748-55.592Z" transform="translate(-446.67 -1089.396)" fill="#022a44"/>
    <path id="Path_110" data-name="Path 110" d="M730.963,1722.93s1.907-1.585,1.914-1.593a8.662,8.662,0,0,0,1.526-6.391c-1.615-12.993-5.93-29.111-7.948-41.956h11.695c1.727,13.532,3.679,29.651,1.077,42.441a13.973,13.973,0,0,0-.127,4.733c.142,1.025.269,2.047.367,3.072a3.947,3.947,0,0,1-.382,2.745c-.434.531-2.041.261-3.3.852-3.3,1.547-7.021,1.906-9.369.65-1.391-1.054,1.585-2.833,4.546-4.544Z" transform="translate(-461.308 -1226.375)" fill="#e7a988"/>
    <path id="Path_111" data-name="Path 111" d="M740.2,1672.99H728.5c1.944,12.4,6.027,27.833,7.761,40.58a4.7,4.7,0,0,0,5.593-1.712c1.645-12.133-.1-26.562-1.667-38.868Z" transform="translate(-463.349 -1226.375)" fill="#d88568"/>
    <path id="Path_112" data-name="Path 112" d="M746.832,1972.121a2.079,2.079,0,0,0,.06-.831,5.885,5.885,0,0,0-.523,1.218.294.294,0,0,0,.307-.075.626.626,0,0,0,.157-.306Zm-6.326,3.94a6.159,6.159,0,0,1-1.787.344,3.468,3.468,0,0,1-2.871-1.712c.329-.24.658-.479.995-.71a5.791,5.791,0,0,0,4.853.792,41.053,41.053,0,0,1,4.942-1.1,63.69,63.69,0,0,1-6.124,2.386Z" transform="translate(-469.498 -1476.088)" fill="#022a44"/>
    <path id="Path_113" data-name="Path 113" d="M728.207,1982.921a3.462,3.462,0,0,0,2.056,1.293c1.339.335,3.26-.262,4.516-.748a32.621,32.621,0,0,1,4.733-1.937,3.934,3.934,0,0,1-.381,2.728c-.434.531-2.041.262-3.3.852-3.3,1.549-7.021,1.907-9.369.651-.927-.7.09-1.728,1.75-2.841Z" transform="translate(-461.349 -1484.66)" fill="#ffd255"/>
    <path id="Path_114" data-name="Path 114" d="M735.472,1480.8c2,7.476-.681,15.34-1.63,23.047-1.675,13.622,5.705,29.336,3.088,42.786-4.03,1.966-8.4,3.528-12.943,1.091.77-8.074-1.623-18.69-2.991-26.674-.7-4.1-1.765-8.134-2.131-12.283-.9-10.175,2.43-20.71-.232-30.518q7.156-.347,14.319-.7l2.527,3.259-.007-.007Z" transform="translate(-455.087 -1062.767)" fill="#352f6c"/>
    <path id="Path_115" data-name="Path 115" d="M697.433,1490.753a6.83,6.83,0,0,0,2.527-.762,2.372,2.372,0,0,0,1.226-2.191q-11.014-.694-21.961-2.22a2.052,2.052,0,0,0,.1,2.124,4.64,4.64,0,0,0,1.66,1.472,17.29,17.29,0,0,0,8.053,2.228,41.147,41.147,0,0,0,8.4-.658v.007Z" transform="translate(-421.886 -1069.49)" fill="#022a44"/>
    <path id="Path_116" data-name="Path 116" d="M794.023,1503.808c.95-7.708,3.627-15.579,1.63-23.047l-2.527-3.261c-.867.046-1.735.083-2.6.127,1.809,2.924,3.178,6,2.737,9.069-2.991,17.2,0,32.147,2.243,48.595a39.165,39.165,0,0,1,.433,11.849c.389-.179.785-.358,1.167-.554,2.624-13.449-4.763-29.164-3.088-42.785Z" transform="translate(-515.268 -1062.726)" fill="#022a44"/>
    <path id="Path_117" data-name="Path 117" d="M700.361,1141.618c1.884,1.966,2.393,5.062,2.079,7.865a30.207,30.207,0,0,1-3.656,10.923c-1.682,3.095-3.036,6.773-2.161,11.252a40.224,40.224,0,0,0,2.094,6.391,47.377,47.377,0,0,1,3.058,16.933,4.176,4.176,0,0,1-.651,2.678,3.638,3.638,0,0,1-2.729.956c-6.932.358-16.727.733-24.7-2.251.4-10.863,4.7-20.028,5.107-30.89.187-5.181-2.408-8.763-.351-13.45,1.832-4.186,7.926-9.382,11.859-11.235,3.268-1.547,7.492-1.832,10.057.837v-.008Z" transform="translate(-417.464 -779.878)" fill="#ffd255"/>
    <path id="Path_118" data-name="Path 118" d="M715.37,1261.321c.247-5.689,2.206-11.251,1.929-16.933a48.578,48.578,0,0,0,14.984-9.188c-2.5,5.846-5.047,12.074-4.068,18.353.628,4.009,2.639,7.626,4.172,11.379s2.55,9.04,1.181,12.851c-6.632.747-12.681.86-18.7-.933,1.465-4.994.269-10.34.493-15.535Z" transform="translate(-451.936 -859.891)" fill="#faa701"/>
    <path id="Path_119" data-name="Path 119" d="M711.614,1246.341a8.457,8.457,0,0,1,1.316-4.194,9.185,9.185,0,0,1,3.193-2.407q7.1-3.858,14.558-7.02a53.778,53.778,0,0,1-15.889,21.008,2.477,2.477,0,0,1-2.079.762c-.95-.277-1.2-1.472-1.256-2.459a36.052,36.052,0,0,1,.157-5.681Z" transform="translate(-449.04 -857.815)" fill="#022a44"/>
    <path id="Path_120" data-name="Path 120" d="M683.135,1210.85c-.852-4.852.471-9.734,1.75-14.459.5-1.862,1.024-3.782,1.406-5.675a82.751,82.751,0,0,0,1.174-9.823c.232-2.893.471-5.877.98-8.784.912-5.219,3.223-12.23,9.018-16l.2.314c-5.683,3.694-7.956,10.6-8.853,15.745-.508,2.885-.74,5.869-.972,8.747a85.6,85.6,0,0,1-1.182,9.869c-.381,1.906-.9,3.828-1.413,5.7-1.271,4.681-2.587,9.525-1.742,14.294l-.366.068Z" transform="translate(-425.145 -793.683)" fill="#022a44"/>
    <path id="Path_121" data-name="Path 121" d="M586.972,1096.421c-2.228-.479-4.569.612-6.475,1.757-2.879,1.726-5.586,3.745-8.367,5.652s-5.847,3.551-9.137,3.723c-4.643-5.2-7.522-6.526-12.061-11.506a10.3,10.3,0,0,1-1.159-2.438,18.639,18.639,0,0,0-1.593-3.947,1.186,1.186,0,0,0-.576-.546,2.2,2.2,0,0,0-.665-.031,2.567,2.567,0,0,1-1.383-.7c-1.563-1.233-3.118-2.466-4.681-3.7-.643,1.272.591,1.9,2.662,3.881a1.514,1.514,0,0,0-1.226,1.166,4.53,4.53,0,0,1,.022,1.42c-.12.381-.434.754-.284,1.121.082.2.292.323.381.516.127.277-.008.6-.022.9a2.162,2.162,0,0,0,.606,1.354,6.11,6.11,0,0,0,1.585,1.608c.464.277.979.419,1.443.687a3.965,3.965,0,0,1,1.675,1.922c.082.171.546,1.121.606,1.248a122.576,122.576,0,0,0,9.324,15.312,3.129,3.129,0,0,0,2.759,1.225,60.6,60.6,0,0,0,22.821-6.675,20.332,20.332,0,0,0,4.748-3.08,7.527,7.527,0,0,0,2.819-5.9,5.318,5.318,0,0,0-3.828-4.994Z" transform="translate(-306.139 -733.896)" fill="#e7a988"/>
    <path id="Path_122" data-name="Path 122" d="M595.8,1143.182c-2.228-.479-4.569.612-6.475,1.758-2.879,1.726-5.586,3.745-8.367,5.652s-5.847,3.551-9.137,3.723q-.87-.976-1.787-1.907a5,5,0,0,1-.994.643c-5.234,2.99-10.468-3.738-12.711-8.971-.725-1.443-3.544-1.5-5.077-3.53a2.33,2.33,0,0,0,.591,1.272,6.138,6.138,0,0,0,1.585,1.608c.464.275.979.418,1.443.687a3.961,3.961,0,0,1,1.675,1.92c.082.173.546,1.122.606,1.249a122.6,122.6,0,0,0,9.324,15.311,3.134,3.134,0,0,0,2.759,1.227,60.575,60.575,0,0,0,22.821-6.676,20.271,20.271,0,0,0,4.748-3.08,7.523,7.523,0,0,0,2.819-5.9,5.318,5.318,0,0,0-3.828-4.994Z" transform="translate(-314.971 -780.658)" fill="#d88568"/>
    <path id="Path_123" data-name="Path 123" d="M685.009,1151.953c-1.952.231-3.6,1.5-5.2,2.624a47.389,47.389,0,0,1-12.839,6.354,11.389,11.389,0,0,0-3.028,1.256,3.325,3.325,0,0,0-1.585,2.722c.037.979.673,1.891.606,2.872-.075,1.068-.95,1.883-1.645,2.7s-1.256,2.026-.673,2.922a2.835,2.835,0,0,0,1.69.98,11.467,11.467,0,0,1,2.871,1.12,3.643,3.643,0,0,1,1.78,2.416,11.2,11.2,0,0,1-.052,1.935,2.1,2.1,0,0,0,.658,1.751,1.861,1.861,0,0,0,1.107.313c1.937-.021,3.3-1.816,4.591-3.259,4.322-4.8,10.939-7.049,15.246-11.872a12.958,12.958,0,0,0,3.118-5.733,8.3,8.3,0,0,0-1.024-6.333,6.132,6.132,0,0,0-5.623-2.774Z" transform="translate(-406.337 -790.169)" fill="#ffd255"/>
    <path id="Path_124" data-name="Path 124" d="M676.666,1161.23l-.314-.2a6.328,6.328,0,0,1,4.142-2.512c.628-.142,1.271-.246,1.892-.344a17.991,17.991,0,0,0,2.819-.606,16.605,16.605,0,0,0,5.242-3.3l.553-.464a23.828,23.828,0,0,1,4.554-3.274,7.673,7.673,0,0,1,6.244-.554l-.142.344a7.324,7.324,0,0,0-5.937.539,23.178,23.178,0,0,0-4.479,3.222l-.553.471a16.933,16.933,0,0,1-5.369,3.365,19.558,19.558,0,0,1-2.879.62c-.613.1-1.249.2-1.862.344A5.94,5.94,0,0,0,676.666,1161.23Z" transform="translate(-419.693 -788.187)" fill="#022a44"/>
    <path id="Path_125" data-name="Path 125" d="M680.761,1230.24a12.272,12.272,0,0,1-5.533,1.345,2.082,2.082,0,0,0-1.54.389,3.443,3.443,0,0,1-.366,2.886c.808-1.016,2.168-1.376,3.365-1.876A12.365,12.365,0,0,0,680.761,1230.24Zm8.367,2.393a104.772,104.772,0,0,1-11.665,9.546,8.147,8.147,0,0,0-4.875-2.429,23.561,23.561,0,0,0,8.719-2.459A67.273,67.273,0,0,0,689.128,1232.633Zm-8.651,13.711c2.056-1.3,3.642-3.328,5.458-4.95a38.311,38.311,0,0,1,6.341-4.238c2.236-1.316,4.4-3.088,5.174-5.562a17.242,17.242,0,0,1-6.647,5.741,74.456,74.456,0,0,0-7.731,4.359,29.569,29.569,0,0,0-4.92,4.658,1.219,1.219,0,0,0,1.144.463,2.771,2.771,0,0,0,1.189-.479Z" transform="translate(-416.542 -855.739)" fill="#faa701"/>
    <path id="Path_126" data-name="Path 126" d="M713.448,1065.239a1.269,1.269,0,0,1,.464.225.469.469,0,0,1,.165.464.292.292,0,0,1-.411.171,5.829,5.829,0,0,1-1.092-1.1q.437.112.875.247v-.008Z" transform="translate(-450.014 -717.413)" fill="#d88568"/>
    <path id="Path_127" data-name="Path 127" d="M2402.1,1262.728c-.075-.531-.441-1-.464-1.547-.015-.366.135-.718.143-1.085a3.844,3.844,0,0,0-.562-1.591,5.5,5.5,0,0,1-.5-2.012,1.705,1.705,0,0,0-.987.762,1.757,1.757,0,0,0-.217,1.226c.09.456.365.889.26,1.345a1.152,1.152,0,0,1-.231.456c-.023-.029-.045-.052-.067-.083a7.415,7.415,0,0,0-1.287-1.008,20.461,20.461,0,0,1-3.634-3.977c-.187-.231-.479-.479-.733-.329s-.269.7-.173.972a11.385,11.385,0,0,0,2.192,3.5,1.124,1.124,0,0,1,.283.479,1.1,1.1,0,0,1-.173.7,15.948,15.948,0,0,0-.658,1.608,2.7,2.7,0,0,0-.186,1.637,2.93,2.93,0,0,0,.575.958,3.382,3.382,0,0,0,2.057,1.479,9.087,9.087,0,0,0,1.562.158,25.1,25.1,0,0,1,4.1,4.269,13.639,13.639,0,0,1,3.193-2.543c-1.585-1.5-3.111-3.057-4.577-4.665a1.473,1.473,0,0,0,.069-.7Z" transform="translate(-1857.234 -876.332)" fill="#e7a988"/>
    <path id="Path_128" data-name="Path 128" d="M2405.8,1288.669a3.09,3.09,0,0,1-.023-1.674c.156-.889.314-1.787.471-2.684a3.429,3.429,0,0,0,1.362.591,1.692,1.692,0,0,1,1.166.852,1.767,1.767,0,0,1,.1.494c.106.912.2,1.832.308,2.745a2.49,2.49,0,0,1-1.8.731A1.8,1.8,0,0,1,2405.8,1288.669Z" transform="translate(-1867.345 -901.002)" fill="#d88568"/>
    <path id="Path_129" data-name="Path 129" d="M2403.4,1283.422a10.727,10.727,0,0,0,.914.6.637.637,0,0,0,.523.127.522.522,0,0,0,.283-.479,1.575,1.575,0,0,0-.433-1.121,4.527,4.527,0,0,0-.964-.762,1.117,1.117,0,0,0-.539-.225.635.635,0,0,0-.583.5,1,1,0,0,0,.2.785,2.745,2.745,0,0,0,.6.569Z" transform="translate(-1864.755 -898.7)" fill="#e7a988"/>
    <path id="Path_130" data-name="Path 130" d="M2399.5,1291.212a1.361,1.361,0,0,0,.666.614c.313.179.627.366.941.546a2.084,2.084,0,0,0,.7.3.749.749,0,0,0,.7-.233.688.688,0,0,0,.059-.627,1.574,1.574,0,0,0-.367-.539,4.775,4.775,0,0,0-2-1.27.538.538,0,0,0-.4-.023.583.583,0,0,0-.254.4,1.32,1.32,0,0,0-.054.845Z" transform="translate(-1862.125 -905.722)" fill="#e7a988"/>
    <path id="Path_131" data-name="Path 131" d="M2399.992,1302.227a1,1,0,0,0,.119.979,1.682,1.682,0,0,0,.831.583,6.339,6.339,0,0,0,1.01.218,1.57,1.57,0,0,0,.523.029.542.542,0,0,0,.419-.277.669.669,0,0,0-.231-.725,3.4,3.4,0,0,0-.891-.56l-.86-.435a.883.883,0,0,0-.523-.134.564.564,0,0,0-.4.329Z" transform="translate(-1862.522 -915.727)" fill="#e7a988"/>
    <path id="Path_132" data-name="Path 132" d="M2478.708,1325.6l-3.238-1.085a56.456,56.456,0,0,1-39.495-14.017,1.114,1.114,0,0,0-1.472-.023,9.392,9.392,0,0,0-1.757,1.928,3.942,3.942,0,0,0-.531,3.432,5.773,5.773,0,0,0,1.885,2.22,122.022,122.022,0,0,0,15.7,11.8c5.63,3.35,11.919,5.817,18.47,6.183,3.117.173,6.46-.209,8.9-2.153S2480.668,1328.033,2478.708,1325.6Z" transform="translate(-1889.4 -922.686)" fill="#98a9d8"/>
    <path id="Path_133" data-name="Path 133" d="M2477.978,1344.891a.516.516,0,1,1-.516-.516A.516.516,0,0,1,2477.978,1344.891Zm-7.29,3.64a.419.419,0,1,1-.419-.419A.419.419,0,0,1,2470.688,1348.531Zm-.935-5.375a.65.65,0,1,0-.65-.65A.649.649,0,0,0,2469.753,1343.156Zm-8.315-3.64a.374.374,0,1,0-.373-.375A.375.375,0,0,0,2461.438,1339.516Zm-4.209-.793a.516.516,0,1,1-.516-.516A.519.519,0,0,1,2457.229,1338.723Zm-4.675-5.7a.418.418,0,1,1-.418-.419A.417.417,0,0,1,2452.554,1333.018Zm-2.893,2.759a.561.561,0,1,0-.562-.562A.562.562,0,0,0,2449.662,1335.778Z" transform="translate(-1903.698 -941.427)" fill="#e8e9eb"/>
    <path id="Path_134" data-name="Path 134" d="M2432.458,1326.4a3.752,3.752,0,0,0-.283,2.99,5.769,5.769,0,0,0,1.883,2.22,122.025,122.025,0,0,0,15.7,11.8c5.631,3.35,11.918,5.816,18.469,6.183,3.117.173,6.46-.208,8.9-2.153a6.966,6.966,0,0,0,2.251-3.341c-17.042,2.81-35.719-4.225-46.929-17.7Z" transform="translate(-1889.366 -936.237)" fill="#7d95c9"/>
    <path id="Path_135" data-name="Path 135" d="M2542.159,1381.53a4.245,4.245,0,0,0,1.36,4.4A7.831,7.831,0,0,0,2542.159,1381.53Z" transform="translate(-1981.465 -982.387)" fill="#7d95c9"/>
    <path id="Path_136" data-name="Path 136" d="M2530.466,2028.67a2.766,2.766,0,1,0,2.767,2.766,2.769,2.769,0,0,0-2.767-2.766Z" transform="translate(-1969.496 -1524.122)" fill="#022a44"/>
    <path id="Path_137" data-name="Path 137" d="M2590.707,1803.348v-.508h.031v-.65a1.2,1.2,0,0,0-1.108-1.2c-3.259-.262-12.867-1.062-16.561-1.5-4.479-.531-6.327-2.9-6.327-2.9h-.583v-15.312h-.583V1759.33h-2.206v21.956h-.583V1796.6h-.583s-1.847,2.37-6.326,2.9c-3.694.433-13.3,1.225-16.563,1.5a1.2,1.2,0,0,0-1.106,1.2v.65l.441-.037v1.959h1.772v-2.1l20.81-1.683a12.986,12.986,0,0,1-1.324,1,4.047,4.047,0,0,0-1.046.875,2.143,2.143,0,0,0-.308.583h-1.36v5.135h4.561v-5.135h-1.428c.016-.135.031-.269.046-.4a9.555,9.555,0,0,0,4.86-2.243l23.7,1.914v.666a2.761,2.761,0,1,0,1.772-.016Z" transform="translate(-1978.294 -1298.652)" fill="#022a44"/>
    <path id="Path_138" data-name="Path 138" d="M2489.127,1579.064c-1.406,1.2-2.707,3.005-2.161,4.777.7,2.28,3.723,2.668,6.109,2.624q13.222-.237,26.446-.464c5.81-.1,12.091-.366,16.6-4.036,3.209-2.609,4.987-6.564,6.357-10.467a68.175,68.175,0,0,0,3.782-17.322c.308-3.992.158-8.172-1.674-11.739s-5.706-6.316-9.668-5.763a10.175,10.175,0,0,0-6.708,4.6,27.469,27.469,0,0,0-3.245,7.678c-1.951,6.505-3.813,13.517-8.9,18.011-7.44,6.562-19.389,5.644-26.934,12.087Z" transform="translate(-1935.29 -1112.203)" fill="#faa701"/>
    <path id="Path_139" data-name="Path 139" d="M2489.127,1568.364c-1.406,1.2-2.707,3.005-2.161,4.777.7,2.28,3.723,2.67,6.109,2.624q13.222-.235,26.446-.463c5.81-.106,12.091-.366,16.6-4.038,3.209-2.609,4.987-6.564,6.357-10.467a68.144,68.144,0,0,0,3.782-17.322c.308-3.992.158-8.172-1.674-11.737s-5.706-6.318-9.668-5.764a10.182,10.182,0,0,0-6.708,4.6,27.427,27.427,0,0,0-3.245,7.678c-1.951,6.5-3.813,13.516-8.9,18.01-7.44,6.564-19.389,5.644-26.934,12.089Z" transform="translate(-1935.29 -1103.246)" fill="#ffd255"/>
    <path id="Path_140" data-name="Path 140" d="M2568.412,1561.8a4.738,4.738,0,0,1,3.013,3.894,13.143,13.143,0,0,1-.517,5.129q-1.456,6.035-3.394,11.932c-1.556,4.746-3.461,9.613-7.185,12.941-3.979,3.551-9.452,4.844-14.73,5.577a112.123,112.123,0,0,1-18.8.95c-1.855-.052-4.023-.329-4.973-1.922a3.7,3.7,0,0,1,0-3.416,8,8,0,0,1,2.318-2.67c5.07-4.1,11.761-5.569,17.325-8.978a28.675,28.675,0,0,0,11.043-12.463c.98-2.145,1.69-4.411,2.729-6.527a12.259,12.259,0,0,1,4.5-5.331,6.4,6.4,0,0,1,6.7-.089l1.974.98-.008-.008Z" transform="translate(-1964.23 -1131.727)" fill="#352f6c"/>
    <path id="Path_141" data-name="Path 141" d="M2396.872,1908.681c1.57-.7,4.194-1.464,5.75-2.93,2.363-2.228,2.228-3.276,2.43-5.585.24-2.676-.358-6.048-.6-8.724-.075-.883-.172-1.757-.262-2.632h7.6a48.526,48.526,0,0,0,.1,18.024c.231,1.182.464,2.542-.306,3.463a3.009,3.009,0,0,1-2.864.74,7.185,7.185,0,0,0-2.721-.239c-3.276.546-6.6,1.585-9.677.748-.575-.156-1.652-.508-1.772-1.091-.156-.733,1.63-1.466,2.318-1.772Z" transform="translate(-1858.034 -1407.042)" fill="#e7a988"/>
    <path id="Path_142" data-name="Path 142" d="M2411.917,1906.744a48.534,48.534,0,0,1-.1-18.024h-7.6c.089.875.187,1.757.262,2.632.1,1.068.246,2.249.381,3.453,2.863,1.076,3.6,4.635,4.86,7.147,1.5,3.738-2.243,5.981-5.235,6.729a44.475,44.475,0,0,1-9.906,1.645v.037c.119.583,1.2.935,1.772,1.091,3.08.837,6.408-.21,9.675-.748a7.167,7.167,0,0,1,2.721.239,3.023,3.023,0,0,0,2.863-.741c.771-.919.539-2.287.308-3.461h.007Z" transform="translate(-1858.05 -1406.967)" fill="#d88568"/>
    <path id="Path_143" data-name="Path 143" d="M2394.574,2012.109a5.8,5.8,0,0,1-3.007-.964,1.3,1.3,0,0,1-.621-1.189,1.4,1.4,0,0,1,.621-.785,7.2,7.2,0,0,1,2.565-1.174,1.505,1.505,0,0,0,.71,1.234,3.393,3.393,0,0,0,1.4.463,17.436,17.436,0,0,0,6.595-.56,45.525,45.525,0,0,1,6.514-1.354,2.59,2.59,0,0,1-1.279,2.82c-1.181.62-2.609.217-3.948.217a21.347,21.347,0,0,0-4.688.956,15.394,15.394,0,0,1-4.86.329Z" transform="translate(-1855.003 -1506.635)" fill="#2070b4"/>
    <path id="Path_144" data-name="Path 144" d="M2454.275,1895.026c-.029-1.212-.119-2.43-.225-3.634-.075-.881-.171-1.757-.261-2.632h7.6a47.609,47.609,0,0,0-.717,6.272h-6.393Z" transform="translate(-1907.624 -1407)" fill="#7d95c9"/>
    <path id="Path_145" data-name="Path 145" d="M2440.127,1662.362l-8.771.4a2.142,2.142,0,0,1-2.116-1.847c-1.5-10.45-3.858-17.268-2.026-26.712.65-3.349,4.075-6.256,7.432-6.87,8.875-1.629,22.29-2.878,23.121-12.776l13.084,2.453c.307,4.538.291,15.236-3.992,21.425l-28.04,1.959C2439.148,1649,2439.335,1653.174,2440.127,1662.362Z" transform="translate(-1884.817 -1177.462)" fill="#2070b4"/>
    <path id="Path_146" data-name="Path 146" d="M2489.963,1704.25c-11.545,1.741-23.995.433-35.278,4.411-2.243,1.5-5.235,3.738-4.487,6.729.906,7.693,1.264,15.1,1.9,22.414l7.725-.36c-.793-9.18-.98-13.359-1.31-21.964l28.04-1.959a23.657,23.657,0,0,0,3.4-9.269Z" transform="translate(-1904.52 -1252.543)" fill="#22619c"/>
    <path id="Path_147" data-name="Path 147" d="M2437.019,1956.666c1.391-.852,4.09-2.034,5.937-2.99a4.8,4.8,0,0,0,3-4.157c.358-2.661-.426-7.432-.666-10.108-.073-.881-.171-1.756-.261-2.63h7.6c-.233,6.272-1.062,12.089.1,18.024.231,1.181.462,2.542-.307,3.461-1.107,1.316-3.208.86-4.7.831a40.333,40.333,0,0,0-5.466.275,13.568,13.568,0,0,1-5.091.15,1.672,1.672,0,0,1-1.308-1.091c-.158-.733.523-1.368,1.166-1.758Z" transform="translate(-1892.596 -1447.199)" fill="#e7a988"/>
    <path id="Path_148" data-name="Path 148" d="M2525.242,1954.754c-1.166-5.927-.335-11.752-.1-18.024h-2.678c.854,7.528,1.855,15.446.427,22.383a2.83,2.83,0,0,0,2.049-.9c.771-.92.539-2.288.306-3.461v.006Z" transform="translate(-1965.109 -1447.157)" fill="#d88568"/>
    <path id="Path_149" data-name="Path 149" d="M2491.709,1943.1c-.029-1.212-.231-2.609-.344-3.813-.075-.883.217-1.674.127-2.557l8.159.067a48.031,48.031,0,0,0-.546,6.3Z" transform="translate(-1939.069 -1447.157)" fill="#7d95c9"/>
    <path id="Path_150" data-name="Path 150" d="M2428.76,1693.9c.464.958,2.274,1.668,3.328,1.78a11.933,11.933,0,0,0,3.163-.292,29.359,29.359,0,0,1,6.28-.337,16.8,16.8,0,0,0,3,.037,4.81,4.81,0,0,0,2.961-1.151c.643-.771-.015-2.25-.59-3.065a13.765,13.765,0,0,1-7.18,2.124c-1.5.113-2.991.262-4.494.246-1.046-.007-2.722.127-3-1.2-.106-.486.1-.687.41-1.016-.568-.271-1.451.658-2.5,1.158a3.987,3.987,0,0,0-1.316.718.878.878,0,0,0-.061.994Zm17.721-18.159h-6.924a2.443,2.443,0,0,1-2.422-2.123l-2.618-19.677c-.373-2.8-.979-6.377.39-8.859a12.253,12.253,0,0,1,3.432-4.367c6.408-4.44,15.493-5.615,20.526-10.488,2.474-2.4,2.632-5.519,3.619-9.66,4.754,1,11.649,2.332,15.477,5.421,1.5,29.986-17.174,18.4-29.31,24.169-.015,7.911.277,15.752-.052,23.557a2.118,2.118,0,0,1-2.124,2.02Z" transform="translate(-1886.574 -1182.493)" fill="#2070b4"/>
    <path id="Path_151" data-name="Path 151" d="M2606.33,1630.255a3.072,3.072,0,0,0-2.835-.194c-1.249.806-.912,2.945-2.116,3.82a37.2,37.2,0,0,1,18.492,14.579,8.827,8.827,0,0,0-.6-7.888,19.448,19.448,0,0,0-5.608-5.912,37.274,37.274,0,0,0-7.343-4.4Z" transform="translate(-2031.175 -1190.203)" fill="#22619c"/>
    <path id="Path_152" data-name="Path 152" d="M2522.149,1642.482a16.787,16.787,0,0,0-3.85-2.222c4.307,16.553-13.4,26.631-28.4,23.057,2.243,8.224,2.992,17.2-1.5,24.671-1.264,1.9-4.015,2.72-6.984,2.534a2.437,2.437,0,0,0,2.326,1.7h6.924a2.127,2.127,0,0,0,2.124-2.018c.329-7.813.037-15.648.052-23.557,12.136-5.771,30.807,5.816,29.312-24.17Z" transform="translate(-1930.754 -1198.976)" fill="#22619c"/>
    <path id="Path_153" data-name="Path 153" d="M2602.11,1626.149c.441-.656.516-2.391.958-3.049,3.934.292,7.426,2.616,10.318,5.3s5.383,5.793,8.494,8.216a3.317,3.317,0,0,1,1.047,1.093c.5,1.039-.225,2.227-.92,3.147a50.4,50.4,0,0,0-7.97-7.686,39.516,39.516,0,0,0-11.919-7.02Z" transform="translate(-2031.786 -1184.611)" fill="#352f6c"/>
    <path id="Path_154" data-name="Path 154" d="M2606.911,1418.45a16.606,16.606,0,0,1-2-5.891c-.254-3.013.979-5.825,2.624-8.432a10.4,10.4,0,0,1,10.349-10.527,43.959,43.959,0,0,1,8.569.829c2.662.531,5.435,1.414,7.155,3.515a11.685,11.685,0,0,1,2.147,5.756c1.547,10.048-9.123,20.283-11.1,42.068a.814.814,0,0,1-1.285.6c-6.109-4.494-13.556-14.2-20.428-14.937,1.7-2.093,3.148-7.043,3.963-12.978Z" transform="translate(-2032.481 -992.491)" fill="#98a9d8"/>
    <path id="Path_155" data-name="Path 155" d="M2646.1,1405.266a11.72,11.72,0,0,0-2.145-5.756c-1.72-2.093-4.5-2.982-7.157-3.513-1.1-.217-2.206-.381-3.311-.516-2.573,3.29-4.8,6.654-4.144,10.587.188,4.082.366,8.207.314,12.283-2.37-.15-4.74-.306-7.111-.456a13.411,13.411,0,0,1-3.23-.471,4.562,4.562,0,0,1-2.586-1.876c-.381-.637-.7-1.511-1.443-1.563a14.991,14.991,0,0,0,3.371,7.08.9.9,0,0,0,.509.358c.562.083.764-.754,1.257-1.024a1.157,1.157,0,0,1,1.219.256,6.711,6.711,0,0,0,1.01.837c.9.471,1.995-.054,3.013.037,1.518.134,2.526,1.547,3.731,2.518a41.86,41.86,0,0,1-4.293,16.178c3.022,2.774,5.945,5.727,8.606,7.693a.816.816,0,0,0,1.287-.6c1.982-21.793,12.652-32.02,11.1-42.068Z" transform="translate(-2042.819 -994.065)" fill="#7d95c9"/>
    <path id="Path_156" data-name="Path 156" d="M2662.292,1393.475a3.78,3.78,0,0,0-.531,2.1c-.052,1.853.248,3.865,1.57,5.158a5.064,5.064,0,0,0,2.872,1.316,9.014,9.014,0,0,0,3.186-.217,15.254,15.254,0,0,0,7.395-4.075c.814-.814,1.578-1.928,1.256-3.028a3.425,3.425,0,0,0-2.16-1.891c-3.815-1.622-8.286-2.109-12.076-.441A3.552,3.552,0,0,0,2662.292,1393.475Z" transform="translate(-2081.717 -990.617)" fill="#022a44"/>
    <path id="Path_157" data-name="Path 157" d="M2628.981,1492.087a.565.565,0,0,0-1.054.373.569.569,0,1,0,1.06-.373Zm-.366-14.8a1.02,1.02,0,1,0-.008,0Zm6.31,3.632a1.308,1.308,0,1,0,0-.006Zm-3.782,18.669a.582.582,0,1,0,.717.567A.612.612,0,0,0,2631.143,1499.586Zm9.757-.906a1.785,1.785,0,0,0,.337-.575.568.568,0,0,0-.165-.606.522.522,0,0,0-.762.41.8.8,0,0,0,.6.77Zm-.785,7.686a.606.606,0,1,1-.6-.606A.6.6,0,0,1,2640.114,1506.366Zm-4.021-11.543a.561.561,0,1,0-.562-.562A.561.561,0,0,0,2636.093,1494.823Zm-6.82-10.556a.561.561,0,1,0-.561-.562A.561.561,0,0,0,2629.273,1484.267Zm13.361,27.991a.515.515,0,1,1-.515-.516A.516.516,0,0,1,2642.634,1512.258Zm-8.6-6.639a.419.419,0,1,1-.418-.419.418.418,0,0,1,.418.419Zm-7.38-6.543a.7.7,0,1,1-.7-.7A.7.7,0,0,1,2626.655,1499.076Z" transform="translate(-2051.156 -1061.694)" fill="#e8e9eb"/>
    <path id="Path_158" data-name="Path 158" d="M2655.342,1243.723c-1.257-.419-2.117-1.893-3.433-1.832-1.256.06-1.989,1.472-3.14,1.98-1.083.479-2.512.135-3.386.943-.958.889-.546,2.459-.883,3.723a8.482,8.482,0,0,1-1.96,2.893,3.446,3.446,0,0,0-.949,3.222c.247.666.86,1.226.8,1.937a4.8,4.8,0,0,1-.283.9,3.752,3.752,0,0,0,.254,2.376,5.921,5.921,0,0,1,.03,2.243c-.007.808-.731,1.474-.552,2.819,7.993,1.45,15.927,2.407,23.837.552a2.449,2.449,0,0,1-.2-2.549c.24-.441.7-.875.539-1.36-.15-.456-.787-.5-1.122-.845-.852-.875-.958-2-.568-2.355.643-.567.612-1.629.621-2.489,0-1.8-1.7-3.073-2.58-4.642a23.334,23.334,0,0,1-1.354-4.165,4.368,4.368,0,0,0-2.8-3.132c-.941-.21-1.951.081-2.863-.217h-.007Z" transform="translate(-2064.723 -865.491)" fill="#ffd255"/>
    <path id="Path_159" data-name="Path 159" d="M2656.376,1274.15a2.56,2.56,0,0,0-.762,2.28c.156.515.6.941.642,1.479.106,1.22-1.75,1.824-1.831,3.043-.046.666.463,1.235.7,1.855a3.836,3.836,0,0,1-.156,2.624,14.662,14.662,0,0,0-.837,2.549,2.613,2.613,0,0,0,.748,2.453,3.605,3.605,0,0,0,1.323.56,30.487,30.487,0,0,0,7.724,1.143,16.514,16.514,0,0,0,7.568-1.689.417.417,0,0,0,.179-.142c.127-.219-.165-.42-.373-.562a1.835,1.835,0,0,1-.621-1.749c.075-.642.344-1.256.471-1.891a2.126,2.126,0,0,0-.329-1.853c-.629-.718-1.78-.591-2.632-1.025a4.061,4.061,0,0,1-1.741-2.857,5.723,5.723,0,0,0-1.391-3.1c-.95-.831-2.476-.935-3.186-1.982-.389-.583-.442-1.345-.845-1.914a2.343,2.343,0,0,0-2.459-.762,4.46,4.46,0,0,0-2.206,1.541Z" transform="translate(-2075.299 -891.14)" fill="#d88568"/>
    <path id="Path_160" data-name="Path 160" d="M2672.41,1350.621c1.241-2.826,1.451-5.539,1.75-8.611a15.386,15.386,0,0,0,6.124.463q.672,4.386,1.345,8.778a1.685,1.685,0,0,1,1.055,1.085,2.349,2.349,0,0,1-.531,1.756,11.621,11.621,0,0,1-4.868,4.442,6.429,6.429,0,0,1-6.347-.525,4.48,4.48,0,0,1-1.093-5.935,9.135,9.135,0,0,1,2.573-1.451Z" transform="translate(-2087.901 -949.304)" fill="#e7a988"/>
    <path id="Path_161" data-name="Path 161" d="M2682.532,1351.983c-1.458,4.53-6.139,7.356-10.82,5.6a3.609,3.609,0,0,1-2.355-1.876,4.685,4.685,0,0,0,1.57,2.31,6.4,6.4,0,0,0,6.347.523,11.508,11.508,0,0,0,4.868-4.44,2.354,2.354,0,0,0,.531-1.758,1.255,1.255,0,0,0-.15-.358Zm-2.8-9.457a14.92,14.92,0,0,1-5.571-.516c-.3,3.072-.508,5.785-1.749,8.611a9.247,9.247,0,0,0-2.572,1.451,3.714,3.714,0,0,0-.7,2.228,27.949,27.949,0,0,1,8.554-3.455c1.974-.658,1.629-4.792,2.032-8.32Z" transform="translate(-2087.898 -949.304)" fill="#d88568"/>
    <path id="Path_162" data-name="Path 162" d="M2694.43,1348.174a38.544,38.544,0,0,0,.9-6.124,14.825,14.825,0,0,0,5.212.539c-.112,3.7-2.834,5.031-6.109,5.585Z" transform="translate(-2109.069 -949.338)" fill="#022a44"/>
    <path id="Path_163" data-name="Path 163" d="M2666.81,1274.287a1.914,1.914,0,0,0,.2-1.158,9,9,0,0,1,.494-2.976l.553-1.518a8.85,8.85,0,0,1,9.8,1.324,5.853,5.853,0,0,1,2.243,3.723,8.412,8.412,0,0,1-1.083,4.261,12.731,12.731,0,0,1-2.617,4.2,8.469,8.469,0,0,1-4.2,1.982,19.9,19.9,0,0,1-3.267.306,1.911,1.911,0,0,1-1.862-1.339,16.827,16.827,0,0,1-1.01-7.041,4.407,4.407,0,0,1,.748-1.78v.015Z" transform="translate(-2085.262 -887.099)" fill="#e7a988"/>
    <path id="Path_164" data-name="Path 164" d="M2702.908,1273.734a5.836,5.836,0,0,0-2.244-3.723,9.2,9.2,0,0,0-7.424-2.13,3.4,3.4,0,0,1,.883.629c1.92,1.279,1.645,4.763,3.888,6.2a2.326,2.326,0,0,1,1.106,2.093,7.966,7.966,0,0,0,.935,4.463,17.136,17.136,0,0,0,1.781-3.259,8.45,8.45,0,0,0,1.083-4.261Z" transform="translate(-2108.073 -887.144)" fill="#d88568"/>
    <path id="Path_165" data-name="Path 165" d="M2700.1,1274.117a24.7,24.7,0,0,0,.56-4.09,5.545,5.545,0,0,0-.949-2.855,5.462,5.462,0,0,0-.441-.554c.008-.156.022-.306.031-.462a7.632,7.632,0,0,0-.51-3.626,6.518,6.518,0,0,0-3.342-2.947,12.546,12.546,0,0,0-6.22-1.024l-1.959.891c.831-.21,3.313.538,3.746,1.271a11.076,11.076,0,0,1,.606,2.183,3.193,3.193,0,0,0,1.833,1.928c.642.254,1.435.345,1.81.928a2.451,2.451,0,0,1-.016,1.92,6.741,6.741,0,0,0-.186,2.728,4.112,4.112,0,0,0,.463,1.347,2.341,2.341,0,0,0,.972,1.389,5.175,5.175,0,0,1,1.674,1.489c.4.771.225,1.787.748,2.482a2.891,2.891,0,0,0,2.214.837,4.377,4.377,0,0,1-1.025-3.836Z" transform="translate(-2103.075 -879.393)" fill="#ffd255"/>
    <path id="Path_166" data-name="Path 166" d="M2644.96,1267.542c.185.217.456.388.531.665.09.344-.15.673-.3,1a1.948,1.948,0,0,0,.464,2.2,2.839,2.839,0,0,1,.1-2.213,2.135,2.135,0,0,0,.41-1.225c-.1-.577-.806-.868-1.016-1.414a1.548,1.548,0,0,1,.248-1.3,3.954,3.954,0,0,0,.6-1.22,5.39,5.39,0,0,0-1.225,1.6,1.843,1.843,0,0,0,.179,1.92Zm1.449,4.948a7.71,7.71,0,0,0-.964,2.4,2.6,2.6,0,0,0,.725,2.376,8.266,8.266,0,0,1,.233-4.777Zm14.35-9.4a1.422,1.422,0,0,1,.92,1.443,6.858,6.858,0,0,1-.435,1.787,2.3,2.3,0,0,0,.06,1.8,3.779,3.779,0,0,0,1.4,1.075,1.54,1.54,0,0,1,.891,1.428c-.075.418-.449.762-.442,1.189a1.146,1.146,0,0,0,.479.792,3.221,3.221,0,0,1,.7.652,1.516,1.516,0,0,1,.171,1.054,4.546,4.546,0,0,1-.352,1.031,1.679,1.679,0,0,0,.322-2.474,2.991,2.991,0,0,1-.508-.606,1.473,1.473,0,0,1,.156-1.2,2.025,2.025,0,0,0,.306-1.187c-.1-.531-.621-.853-1.1-1.093a2.129,2.129,0,0,1-1.2-1.016c-.216-.6.165-1.226.292-1.847a2.517,2.517,0,0,0-1.668-2.826Zm5.608,6.706c.262-.494.681-.964.612-1.516a1.651,1.651,0,0,0-1.069-1.137,2.669,2.669,0,0,1,.606.479.909.909,0,0,1,.246.71c-.052.373-.4.621-.65.889a2.554,2.554,0,0,0-.412,2.841c.247.479.643.875.854,1.368a2.785,2.785,0,0,1-.068,2.107,8.325,8.325,0,0,1-1.135,1.833,7.453,7.453,0,0,0,1.375-1.368,2.505,2.505,0,0,0,.493-1.833,11.436,11.436,0,0,0-.964-2.01,2.811,2.811,0,0,1,.127-2.363Zm-12.757-13.053a5.266,5.266,0,0,1,2.445,1.622,5.154,5.154,0,0,0-5.317-.277A2.714,2.714,0,0,1,2653.611,1256.738Zm4.883,3.7a5.334,5.334,0,0,1-.785-1.337,4.692,4.692,0,0,0-.808-1.324,1.74,1.74,0,0,0-1.376-.606,2.154,2.154,0,0,1,1.056,1.062c.239.449.418.935.7,1.362a1.712,1.712,0,0,0,1.21.844Zm-.121-2.041a1.655,1.655,0,0,0,1.114,1.287,1.469,1.469,0,0,0-.485-1.062c-.3-.269-.231-.254-.629-.217Z" transform="translate(-2067.353 -877.879)" fill="#faa701"/>
    <path id="Path_167" data-name="Path 167" d="M2758.387,1450.234l-7.245.972a91.679,91.679,0,0,0-1.01-19.2c-.77-4.792-1.891-9.854-.1-14.361.689-1.72,2.02-3.425,3.859-3.611a4.218,4.218,0,0,1,3.357,1.406,9.437,9.437,0,0,1,1.855,3.251c2.3,6.175,1.818,10.908,1.219,17.472-.4,4.448-.336,9.719-1.943,14.063Z" transform="translate(-2154.811 -1009.585)" fill="#98a9d8"/>
    <path id="Path_168" data-name="Path 168" d="M2749.66,1443.91c-1.174,4.186-.187,8.761.508,13.12a90.7,90.7,0,0,1,1.01,19.2l1.989-.269C2754.289,1465.335,2752.628,1454.158,2749.66,1443.91Z" transform="translate(-2154.848 -1034.607)" fill="#7d95c9"/>
    <path id="Path_169" data-name="Path 169" d="M2769.222,1441.987a.464.464,0,1,0-.462-.463A.464.464,0,0,0,2769.222,1441.987Zm5.325,4.113a.748.748,0,1,0-.748-.748A.749.749,0,0,0,2774.547,1446.1Zm-3.365,7.154a.606.606,0,1,1-.606-.606A.6.6,0,0,1,2771.182,1453.253Zm4.583.793a.561.561,0,1,0-.56-.562A.561.561,0,0,0,2775.765,1454.046Zm-1.308,8.08a.516.516,0,1,1-.516-.515A.518.518,0,0,1,2774.457,1462.127Z" transform="translate(-2171.292 -1032.221)" fill="#e8e9eb"/>
    <path id="Path_170" data-name="Path 170" d="M2713.319,1447.953c-.275.4-.941.717-1.083,1.181-.045.142.1.225.1.373a17.853,17.853,0,0,0,.113,2.288c-1.25,1.233-2.618,1.256-3.963,1.8l-.158-1.428a3.018,3.018,0,0,0-.419-1,5.32,5.32,0,0,0-.681-.687,3.324,3.324,0,0,1-.821-1.951,18.707,18.707,0,0,1-.023-2.161c0-2.1-.464-4.179-.658-6.272a1.379,1.379,0,0,1,.09-.8c.231-.029.575.306.643.537a27.236,27.236,0,0,1,.935,4.083c.292-.389.127-.839.1-1.324a11,11,0,0,0-.225-1.622,10.625,10.625,0,0,1-.358-2.318,1,1,0,0,1,.381-.7c.254-.09.352.113.418.375-.083-.358,0-.344,0-.56s.2-.45.419-.4a9.031,9.031,0,0,1,1.743,3.236,8.15,8.15,0,0,1,.164,2.736,5.344,5.344,0,0,0-.2-3.132,11.845,11.845,0,0,1-.539-1.383,1.7,1.7,0,0,1,.173-1.428c1.166,1.72,2.378,3.6,2.324,5.675a8.52,8.52,0,0,0-.021,2.572,3.709,3.709,0,0,0,1.077-.927,11.443,11.443,0,0,0,.515-1.1,1.163,1.163,0,0,1,.92-.71.353.353,0,0,1,.277.1.41.41,0,0,1,.037.35c-.2,1.032-.793,1.959-.95,2.99a3.861,3.861,0,0,1-.366,1.637l.029-.021Z" transform="translate(-2118.514 -1029.119)" fill="#e7a988"/>
    <path id="Path_171" data-name="Path 171" d="M2712.89,1510.567a2.337,2.337,0,0,0,.366.494,5.406,5.406,0,0,1,.679.687,3.024,3.024,0,0,1,.42,1l.156,1.428c1.345-.539,2.714-.562,3.963-1.795a16.813,16.813,0,0,1-.112-2.288c0-.142-.142-.231-.1-.365a10.572,10.572,0,0,1-5.354.837Z" transform="translate(-2124.522 -1089.706)" fill="#d88568"/>
    <path id="Path_172" data-name="Path 172" d="M2713.472,1447.837a3.82,3.82,0,0,0,.366-1.637c.158-1.039.748-1.968.95-2.99a.437.437,0,0,0-.037-.352.32.32,0,0,0-.275-.1,1.19,1.19,0,0,0-.92.71,11.24,11.24,0,0,1-.516,1.1,3.4,3.4,0,0,1-1.076.927,8.467,8.467,0,0,1,.023-2.572c.052-2.078-1.16-3.955-2.326-5.675a1.7,1.7,0,0,0-.173,1.428c.129.479.366.92.539,1.383a5.4,5.4,0,0,1,.2,3.132,8.359,8.359,0,0,0-.164-2.736,9,9,0,0,0-1.743-3.236c-.217-.046-.425.187-.419.4s-.081.2,0,.56c-.059-.262-.164-.463-.419-.373a.971.971,0,0,0-.381.694,10.731,10.731,0,0,0,.358,2.318,11.487,11.487,0,0,1,.225,1.622c.023.487.194.935-.1,1.324a27.011,27.011,0,0,0-.935-4.082c-.06-.225-.411-.568-.643-.539a1.388,1.388,0,0,0-.09.8c.2,2.095.666,4.165.658,6.273a18.778,18.778,0,0,0,.023,2.161,3.855,3.855,0,0,0,.456,1.464,10.542,10.542,0,0,0,5.354-.837V1449c.142-.464.808-.778,1.085-1.181l-.016.015Z" transform="translate(-2118.667 -1029.002)" fill="#e7a988"/>
    <path id="Path_173" data-name="Path 173" d="M2717.539,1447.092h-.373a10.722,10.722,0,0,0-1.437-5.525l.323-.187A11.086,11.086,0,0,1,2717.539,1447.092Z" transform="translate(-2126.899 -1032.489)" fill="#022a44"/>
    <path id="Path_174" data-name="Path 174" d="M2728.889,1531.444a5.083,5.083,0,0,1-4.748-1.66,16.689,16.689,0,0,1-2.49-4.948c-1.42-4.919-2.759-10.033-4.171-14.952,1.839-.09,4.367-1.1,5.3-2.684a66.006,66.006,0,0,0,5.937,11.641c1.405,2.1,3.036,4.178,3.484,6.66s-.823,5.518-3.313,5.952Z" transform="translate(-2128.365 -1087.588)" fill="#98a9d8"/>
    <path id="Path_175" data-name="Path 175" d="M2756.919,1525.142c-.007-3.289-1.585-6.385-3.126-8.978-.448-.756-.9-1.451-1.337-2.13a22.1,22.1,0,0,1-2.976-5.81l.358-.1a21.7,21.7,0,0,0,2.93,5.712c.441.679.9,1.383,1.347,2.145,1.57,2.638,3.17,5.787,3.178,9.173h-.375Z" transform="translate(-2155.153 -1088.358)" fill="#022a44"/>
    <path id="Path_176" data-name="Path 176" d="M2745.6,1549.534a.56.56,0,1,0-.561-.56A.56.56,0,0,0,2745.6,1549.534Zm1.122-6.452a.463.463,0,1,0-.328-.135A.462.462,0,0,0,2746.722,1543.082Zm-4.674-3.124a.419.419,0,1,1-.419-.419A.417.417,0,0,1,2742.047,1539.958Zm.935-4.39a.419.419,0,1,1-.419-.419A.418.418,0,0,1,2742.982,1535.569Z" transform="translate(-2148.23 -1110.986)" fill="#e8e9eb"/>
    <path id="Path_177" data-name="Path 177" d="M2466.509,1724.961a2.635,2.635,0,0,1-2.6-2.28l-2.691-20.229c-.366-2.692-.823-6.049.479-8.419a12.3,12.3,0,0,1,3.49-4.425,46.566,46.566,0,0,1,9.691-4.658c4.15-1.622,8.067-3.153,10.812-5.808l.262.269c-2.8,2.714-6.751,4.254-10.933,5.891a46.446,46.446,0,0,0-9.608,4.621,11.981,11.981,0,0,0-3.38,4.3c-1.241,2.266-.8,5.554-.441,8.194l.075.552,2.617,19.677a2.264,2.264,0,0,0,2.236,1.959v.373Z" transform="translate(-1913.517 -1231.523)" fill="#022a44"/>
    <path id="Path_178" data-name="Path 178" d="M1316.98,1130.271a7.154,7.154,0,0,1-1.376,5.473,9.611,9.611,0,0,1-7.1,7.387,9.174,9.174,0,0,1-5.264-8.74,9.068,9.068,0,0,1,6.168-8.066,5.354,5.354,0,0,1,5.452,1.137Z" transform="translate(-944.467 -768.517)" fill="#e7a988"/>
    <path id="Path_179" data-name="Path 179" d="M1311.532,1126.058a6.8,6.8,0,0,0-2.169.269,9.079,9.079,0,0,0-6.168,8.066,9.177,9.177,0,0,0,5.264,8.74,9.023,9.023,0,0,0,.972-.283c-1.182-5.8-1.293-12.12,2.1-16.8Z" transform="translate(-944.426 -768.519)" fill="#d88568"/>
    <path id="Path_180" data-name="Path 180" d="M1256.819,1176.875c-.366-.412-.023-1.047.306-1.489a26.341,26.341,0,0,0,5.235-11.887,34.166,34.166,0,0,0,8.292,2.064,97.34,97.34,0,0,0-2.534,14.669q-5.351-1.537-10.708-3.065a1.142,1.142,0,0,1-.591-.3Z" transform="translate(-905.482 -799.87)" fill="#e7a988"/>
    <path id="Path_181" data-name="Path 181" d="M1303.043,1104.2a4.676,4.676,0,0,0,3.14-3.588,4.953,4.953,0,0,1-3.515.471,1.159,1.159,0,0,0,.906-.388,7.332,7.332,0,0,1-3.807-1.637c-1.122-.837-2.138-1.818-3.319-2.572a5.813,5.813,0,0,0-3.971-1.047c-.172.029-.329.083-.493.127a6.656,6.656,0,0,0-2.4.135c-2.676.7-4.569,3.244-5.173,5.943a18.494,18.494,0,0,0-.181,8.53c2.722,1.293,6.716,1.2,9.6.336.4-.119.792-.269,1.181-.425a11.057,11.057,0,0,0,.322-1.637,3.292,3.292,0,0,1,.731-1.78,1.269,1.269,0,0,1,2.3.808,2.857,2.857,0,0,1-.037.575,12.611,12.611,0,0,0,1.57-1.591,5.572,5.572,0,0,0,5.041-2.453,5.251,5.251,0,0,1-1.893.21Z" transform="translate(-928.204 -742.849)" fill="#352f6c"/>
    <path id="Path_182" data-name="Path 182" d="M1359.332,1166.85a2.04,2.04,0,0,1,.381-.337.926.926,0,0,0,.269-1,.737.737,0,0,0-.9-.427.943.943,0,0,0-.516.875,3.2,3.2,0,0,0,.231,1.114.427.427,0,0,0-.658.5,1.736,1.736,0,0,0,.239.321.382.382,0,0,1,.1.366,1.761,1.761,0,0,1-.135.2c-.037.075-.029.187.052.21a.179.179,0,0,0,.143-.046,1.652,1.652,0,0,0,.642-1.083A1.539,1.539,0,0,1,1359.332,1166.85Z" transform="translate(-990.401 -801.163)" fill="#d88568"/>
    <path id="Path_183" data-name="Path 183" d="M1345.107,1108.139c.329.187.283.689.531.98.283.329.8.246,1.241.254a3.211,3.211,0,0,1,2.13.979,9.476,9.476,0,0,1,1.428,1.922c.283-.441.56-.889.845-1.331l-8.583-4.994c.142.7.283,1.412.425,2.116a.694.694,0,0,0,.142.358c.218.254.637.112.92-.06s.635-.381.927-.217Z" transform="translate(-977.507 -751.693)" fill="#2070b4"/>
    <path id="Path_184" data-name="Path 184" d="M1095.12,2034.034a6.839,6.839,0,0,0-2.5-.583,4.906,4.906,0,0,1-2.056-.689,1.847,1.847,0,0,1-1-1.891,12.279,12.279,0,0,1-5.173-1.741c0,1.421-.92,2.7-1.31,4.067a3.411,3.411,0,0,0-.067,1.112,5.442,5.442,0,0,0,.179,2.789,8.727,8.727,0,0,0,5.406,1.07,5.432,5.432,0,0,1,.217-.9,6.2,6.2,0,0,1,2.632-.225,7.555,7.555,0,0,0,1.959.285,4.275,4.275,0,0,0,1.331-.539,2.373,2.373,0,0,0,1.241-1.331C1096.166,2034.722,1095.785,2034.422,1095.12,2034.034Z" transform="translate(-760.038 -1524.507)" fill="#022a44"/>
    <path id="Path_185" data-name="Path 185" d="M1095.721,2038.782a21.621,21.621,0,0,0-4.471-1.712,3.489,3.489,0,0,0-.487.979,1.3,1.3,0,0,0,.135,1.054,1.545,1.545,0,0,0,.9.523,4.536,4.536,0,0,0,3.925-.837Z" transform="translate(-766.561 -1531.154)" fill="#e8e9eb"/>
    <path id="Path_186" data-name="Path 186" d="M1087.8,1588.916c-.718,1.832-1.689,8.382-2.647,10.729-.739,1.816-1.466,2.782-.366,4.411s4.569,3.394,6.364,2.587c4.987-12.889,10.893-25.419,15.545-38.434s8.046-26.675,7.761-40.49q-11.217-3.555-22.432-7.118c-7.014,16.762-2.386,21.741-1.72,34.009s1.982,22.862-2.5,34.3Z" transform="translate(-761.134 -1098.806)" fill="#2070b4"/>
    <path id="Path_187" data-name="Path 187" d="M1136.26,1537.479q-8.234-2.612-16.457-5.219c-7.47,16.7-.606,35.348-2.049,52.61a116.817,116.817,0,0,1-7.484,31.444,3.856,3.856,0,0,0,2.676.089c4.987-12.889,10.9-25.419,15.545-38.434s8.046-26.675,7.761-40.49Z" transform="translate(-782.935 -1108.567)" fill="#22619c"/>
    <path id="Path_188" data-name="Path 188" d="M1145.422,1531.21q8.5,2.69,17,5.39c.285,13.815-3.118,27.474-7.761,40.49-3.036,8.492-6.6,16.785-10.1,25.1.583-3.065.875-6.183,1.36-9.1,4.494-21.36-11.4-41.641-.494-61.879h-.007Zm21.834,93.75a2.728,2.728,0,0,0-2.161-1.428,18.1,18.1,0,0,0-2.707,0c-3.559.037-7.036-1.8-10.55-1.248a39.923,39.923,0,0,0-.075,4.544,6.162,6.162,0,0,0,.15.831,16.719,16.719,0,0,0,.292,2.3,2.712,2.712,0,0,0,.381,1.137,2.284,2.284,0,0,0,1.316.769,7.011,7.011,0,0,0,5.7-.964,1.492,1.492,0,0,0,.5-.494,1.171,1.171,0,0,0,.112-.485,15.382,15.382,0,0,1,1.63-.591,12.374,12.374,0,0,0,3-1.121c1.181-.629,2.947-2.012,2.422-3.238l-.006-.007Z" transform="translate(-809.099 -1107.687)" fill="#022a44"/>
    <path id="Path_189" data-name="Path 189" d="M1213.87,2093.611a.564.564,0,0,1,.687.435.9.9,0,0,1-.306.823,2.171,2.171,0,0,1-.814.41,12.744,12.744,0,0,1-3.986.456,6.663,6.663,0,0,1-2.372-.344,2.574,2.574,0,0,1-1.614-1.668,1.638,1.638,0,0,1,.994-1.943l7.411,1.839Z" transform="translate(-862.585 -1576.953)" fill="#e8e9eb"/>
    <path id="Path_190" data-name="Path 190" d="M1134.474,1513.626l.448-5.046c6.939,3.17,14.887,6.6,22.432,7.753,0,16.483,1.586,30.54,1.1,45.663-.456,14.055-2.909,29.194-4.95,43.967-3.357.823-5.706,1.046-8.778-1.166-.164-12.486-.9-22.189-.164-27.707.733-5.487-1.893-19.049-3.53-24.4-5.122-16.762-10.02-19.311-6.551-39.063h-.006Z" transform="translate(-802.226 -1088.744)" fill="#2070b4"/>
    <path id="Path_191" data-name="Path 191" d="M1149.668,1559.813c-1.375-15.11-8.411-31.475-4.344-46.785-3.626-1.362-7.178-2.93-10.5-4.448l-.45,5.046c-3.476,19.752,1.428,22.3,6.551,39.063,1.637,5.36,4.261,18.913,3.53,24.4-.733,5.51,0,15.214.165,27.707a8.38,8.38,0,0,0,4.03,1.689c1.256-15.5,2.22-30.973,1.01-46.673Z" transform="translate(-802.137 -1088.743)" fill="#22619c"/>
    <path id="Path_192" data-name="Path 192" d="M1246.52,1670.9c5.578-27.834,3.656-56.9,1.062-84.166l.568-.083c2.093,27.728,4.254,56.333-1.22,84.105-.209.046-.2.106-.411.15Z" transform="translate(-896.992 -1154.098)" fill="#27b2e4"/>
    <path id="Path_193" data-name="Path 193" d="M1192.153,1236.369c-2.557-.456-5.077,1.5-6.049,3.919s-.717,5.135-.223,7.685a52.375,52.375,0,0,0,8.531,19.721,30.708,30.708,0,0,0,5.623,6.416c5.577,4.559,13.086,5.771,20.212,6.825.7-1.533,1.4-3.072,2.1-4.6a44.46,44.46,0,0,1-18.739-19.394c-2.811-5.711-4.352-11.946-5.87-18.122Z" transform="translate(-845.864 -860.814)" fill="#022a44"/>
    <path id="Path_194" data-name="Path 194" d="M1392.549,1433.291H1378.23l5.862-23.9h14.327Z" transform="translate(-1007.25 -1005.71)" fill="#022a44"/>
    <path id="Path_195" data-name="Path 195" d="M1399.994,1429.553H1387.91l4.943-20.163h12.082Z" transform="translate(-1015.353 -1005.71)" fill="#fff"/>
    <path id="Path_196" data-name="Path 196" d="M1394.821,1409.39l-4.561,18.6c3.88-4.546,8.313-7.947,14.065-8.067l2.587-10.533Z" transform="translate(-1017.32 -1005.709)" fill="#c7d3dd"/>
    <path id="Path_197" data-name="Path 197" d="M1232.986,1212.966a9.613,9.613,0,0,0,3.694-4.246,17.331,17.331,0,0,1,14.05,9.03q-3.589-1.356-7.186-2.722c-3.013-1.143-6.123-2.3-9.346-2.249l-1.218.187h.007Z" transform="translate(-885.658 -837.724)" fill="#352f6c"/>
    <path id="Path_198" data-name="Path 198" d="M1114.427,1292.15c.21-2.37-.777-7.558-.358-15.521.187-6.414.486-4.007.627-5.987.352-4.844,1.922-6.46,4.323-10.683,1.824-3.215,4.621-8.65,6.526-11.82s2.894-7.334.987-10.511c-1.173-1.959-3.236-3.186-5.271-4.225a65.557,65.557,0,0,0-9.308-3.909c-3.582-1.189-7.807-1.989-10.9.165a23.492,23.492,0,0,0-5.816,6.331c-7.089,11.828-6.139,16.133-9.8,36.566-.3,1.682-5.779,13.292-6.609,16.978a47.8,47.8,0,0,0,5.443,1.756,62.649,62.649,0,0,1,4.015-13.995c0,5.531-1.57,9.367-1.248,14.623,8.778,1.757,18.109,1.36,27.4.231Z" transform="translate(-756.607 -854.125)" fill="#352f6c"/>
    <path id="Path_199" data-name="Path 199" d="M1239.454,1230.969a46.793,46.793,0,0,1,11.8,2.414,21.581,21.581,0,0,0-11.351-3.611,1.665,1.665,0,0,0-.9.158.592.592,0,0,0-.246.785.854.854,0,0,0,.687.26Z" transform="translate(-890.435 -855.346)" fill="#292666"/>
    <path id="Path_200" data-name="Path 200" d="M1200.855,1232.72a10.323,10.323,0,0,0-5.8,4.688Zm19.239,7.514-3.2,4.411A6.856,6.856,0,0,1,1220.094,1240.234Z" transform="translate(-853.914 -857.815)" fill="#22619c"/>
    <path id="Path_201" data-name="Path 201" d="M1263.52,1344.148q2.389-.212,4.794-.508c.208-2.37-.779-7.558-.36-15.521.187-6.414.487-4.007.629-5.987.352-4.844,1.922-6.46,4.321-10.683,1.826-3.215,4.621-8.65,6.528-11.82,1.764-2.945,2.745-6.743,1.354-9.808-19.485,10.354-19.262,33.268-17.257,54.328Z" transform="translate(-910.486 -905.615)" fill="#292666"/>
    <path id="Path_202" data-name="Path 202" d="M1392.448,1230.379a15.617,15.617,0,0,1,3.561-1.428,8.064,8.064,0,0,1-.808-4.007c.044-.785.164-1.7-.389-2.257a2.512,2.512,0,0,0-1.2-.546c-1-.247-1.99-.493-2.984-.748s-1.279.06-1.81-.8c-.21-.337-1.108-1.368-1.362-1.674s-.933-1.645-1.585-1.039c-.3.275.381,1.6.546,1.981.412.956.823,1.922,1.241,2.878.329.771.539,1.287-.075,1.847-.223.2-.731.208-.979.373s-.173,1.039-.067,1.316a.869.869,0,0,0,.381.4Z" transform="translate(-1013.588 -845.262)" fill="#e7a988"/>
    <path id="Path_203" data-name="Path 203" d="M1422.962,1276.364q-.584-1.09-1.166-2.17a6.6,6.6,0,0,0-4.621,1.72.924.924,0,0,0-.389.681.956.956,0,0,0,.135.4q.75,1.459,1.51,2.916a8.41,8.41,0,0,1,4.831-2.722l-.308-.814Z" transform="translate(-1039.525 -892.532)" fill="#98a9d8"/>
    <path id="Path_204" data-name="Path 204" d="M1430.7,1312.272a4.753,4.753,0,0,0,2.655-3.072,12.316,12.316,0,0,0-.329-7.753c-.831-2.5-2.1-4.823-3.126-7.251-1.391-3.3-2.326-6.8-3.942-10a3.444,3.444,0,0,0-1.435-1.764c-.889-.389-1.982.075-3.08.217-.764.1-1.443.883-2.2,1.218a1.131,1.131,0,0,0-.621,1.316,109.309,109.309,0,0,1,2.714,14.034,30.715,30.715,0,0,0,1.451,7.557,8.877,8.877,0,0,0,5.123,5.427A4.341,4.341,0,0,0,1430.7,1312.272Z" transform="translate(-1041.035 -899.3)" fill="#352f6c"/>
    <path id="Path_205" data-name="Path 205" d="M1419.245,1287.424a1.131,1.131,0,0,0-.621,1.316,109.333,109.333,0,0,1,2.714,14.032,30.731,30.731,0,0,0,1.451,7.559,8.881,8.881,0,0,0,5.123,5.427c.044.015.09.023.134.037a88.576,88.576,0,0,0-7.386-29.276A13.079,13.079,0,0,1,1419.245,1287.424Z" transform="translate(-1041.035 -902.852)" fill="#292666"/>
    <path id="Path_206" data-name="Path 206" d="M1322.927,1286.753a13.117,13.117,0,0,1,5.323-8.6,2.77,2.77,0,0,1,2-.673,2.974,2.974,0,0,1,1.466.92c5.369,5.15,9.4,11.564,14.789,16.693a38.436,38.436,0,0,1,4.285,4.336,8.189,8.189,0,0,1,1.891,5.652,4.666,4.666,0,0,1-3.753,4.225,6.57,6.57,0,0,1-4.337-1.5,78.85,78.85,0,0,1-6.408-5.346,74.87,74.87,0,0,0-11.007-7.9,10.327,10.327,0,0,1-3.328-2.588,7.08,7.08,0,0,1-.927-5.217Z" transform="translate(-960.845 -895.266)" fill="#352f6c"/>
    <path id="Path_207" data-name="Path 207" d="M1476.65,1392.64a9.775,9.775,0,0,1,3.35,7.558,6.181,6.181,0,0,0-3.35-7.558Z" transform="translate(-1089.639 -991.688)" fill="#22619c"/>
    <path id="Path_208" data-name="Path 208" d="M1193.708,1303.443c-6.281-9.419-17.311-13.038-24.227-21.046-.037.173-.081.344-.1.525a7.065,7.065,0,0,0,.927,5.217,10.323,10.323,0,0,0,3.328,2.588,74.842,74.842,0,0,1,11.005,7.9,76.536,76.536,0,0,0,6.409,5.346,7.051,7.051,0,0,0,3.911,1.518c-.419-.666-.839-1.339-1.241-2.049Zm-54.338,8.232a86.7,86.7,0,0,1,11.082-38.794A77.593,77.593,0,0,0,1139.37,1311.674Z" transform="translate(-807.295 -891.434)" fill="#292666"/>
    <path id="Path_209" data-name="Path 209" d="M2028.635,2033.137c-1.024,2.214.531,4.186.539,6.191,2.191.119,3.865.052,6.056.171v-1.429a20.226,20.226,0,0,0,13.13,1,2.579,2.579,0,0,0-1.637-2.476,10.674,10.674,0,0,0-3.073-.606,10.425,10.425,0,0,1-4.5-1.516,6.285,6.285,0,0,1-2.759-3.836c-2,.194-3.994.389-6,.575a2.033,2.033,0,0,0-1.435.539c-.308.373-.112.941-.323,1.383Z" transform="translate(-1551.426 -1525.771)" fill="#022a44"/>
    <path id="Path_210" data-name="Path 210" d="M2036.226,2038.937a12.235,12.235,0,0,0,4.882.365.806.806,0,0,0,.666-.329.91.91,0,0,0,.023-.583c-.127-.673-.262-1.345-.389-2.01a49.049,49.049,0,0,0-6.707,1.5,2.175,2.175,0,0,0,1.526,1.047Z" transform="translate(-1556.795 -1530.576)" fill="#fff"/>
    <path id="Path_211" data-name="Path 211" d="M1891.02,1418.43c-.143,7.162,1.712,14.055,3.08,20.567,5.876,28.051,12.18,54.516,18.664,82.948,2.376-.823,7.32-1.691,9.7-2.505a871.961,871.961,0,0,0-11.672-101.009Z" transform="translate(-1436.51 -1013.277)" fill="#352f6c"/>
    <path id="Path_212" data-name="Path 212" d="M1891.02,1418.43c-.143,7.162,1.712,14.055,3.08,20.567,5.876,28.051,12.18,54.516,18.664,82.948,1.262-.433,3.245-.883,5.181-1.331-5.272-35-14.933-68.608-26.267-102.183Z" transform="translate(-1436.51 -1013.277)" fill="#292666"/>
    <path id="Path_213" data-name="Path 213" d="M1946.551,1627.088c-1.047-5.106-2.026-9.479-3.007-14.31-4.733-23.37-8.636-43.443-14.565-67.679l.261-.218c5.931,24.246,10.02,44.438,14.754,67.808.979,4.823,1.757,9.167,2.8,14.273Z" transform="translate(-1468.294 -1119.131)" fill="#7d95c9"/>
    <path id="Path_214" data-name="Path 214" d="M1779.831,2070.387c.739-.5.77-1.576.718-2.482-.075-1.256-.143-2.512-.218-3.776a1.844,1.844,0,0,0-.313-1.12,1.782,1.782,0,0,0-1.422-.419c-2.43.014-4.852.037-7.282.052q-1.918,4.876-3.836,9.748c-.254.644-.485,1.443-.052,1.975a4.023,4.023,0,0,0,2.049.866,37.343,37.343,0,0,0,4.209.061,7.816,7.816,0,0,0,3.627-1.7c.568-.9-.121-1.646.59-2.422.479-.523,1.347-.4,1.93-.8Z" transform="translate(-1332.852 -1552.517)" fill="#022a44"/>
    <path id="Path_215" data-name="Path 215" d="M1792.443,2071.1l1.951.134a8.239,8.239,0,0,0,2.745-.111,2.85,2.85,0,0,0,2.026-1.735,15.485,15.485,0,0,0-6.759-.845,2.911,2.911,0,0,0-1.256.337,1.075,1.075,0,0,0,.119,2A3.514,3.514,0,0,0,1792.443,2071.1Z" transform="translate(-1352.396 -1557.44)" fill="#fff"/>
    <path id="Path_216" data-name="Path 216" d="M1786.217,1418.43l-.254,2.5c-2.257,21.135-4.165,35-4.292,52.431s.621,34.928-1.3,52.227a41.16,41.16,0,0,1,12.069.546c2.782-32.88,8.719-61.177,13.892-91.515.771-4.507.383-10.34-.2-16.177h-19.9Z" transform="translate(-1343.89 -1013.277)" fill="#352f6c"/>
    <path id="Path_217" data-name="Path 217" d="M1790.495,1446.219c4.727-12.814,10.843-1.308,14.872-27.789h-19.15l-.254,2.5c-2.258,21.135-4.165,35-4.292,52.431s.621,34.928-1.3,52.227q1.549-.156,3.119-.2c-.2-23.078-1.108-57.512,7.014-79.164Z" transform="translate(-1343.89 -1013.277)" fill="#292666"/>
    <path id="Path_218" data-name="Path 218" d="M1840.588,1622.108l-.308-.142c2.415-30.04,7.575-56.848,14.574-87.866l.306.165c-7,31-12.165,57.835-14.581,87.844Z" transform="translate(-1394.042 -1110.107)" fill="#7d95c9"/>
    <path id="Path_219" data-name="Path 219" d="M1834.481,1448.047c-.021-.673.023-1.451-.037-2.168q-6.47.257-12.913.875l-1.121,3.618a131.258,131.258,0,0,1,14.1-1.5c-.008-.277-.023-.546-.037-.823Zm.868-2.205c.052.739.015,1.5.037,2.205.007.261.023.515.029.777.471-.023.943-.044,1.42-.06,0-.994.008-1.981.023-2.974-.508.015-1.01.037-1.518.059Zm11.036,2.945c1.831.067,3.663.165,5.488.314-.186-1.091-.381-2.182-.569-3.274-1.66-.06-3.311-.091-4.971-.106.021,1.025.015,2.049.044,3.065Zm-.9-.029c-.031-1.01-.031-2.026-.052-3.043-.577,0-1.16-.015-1.735-.015a12.283,12.283,0,0,1,.223,3.02c.524.007,1.047.023,1.57.037Z" transform="translate(-1377.408 -1036.105)" fill="#fff"/>
    <path id="Path_220" data-name="Path 220" d="M1931.885,1445.7c-1.668,0-3.334.021-5.01.067-.015.987-.029,1.981-.023,2.968,1.772-.052,3.544-.052,5.324-.029A9.81,9.81,0,0,0,1931.885,1445.7Z" transform="translate(-1466.512 -1036.105)" fill="#ffd255"/>
    <path id="Path_221" data-name="Path 221" d="M1860.327,1144.774a1.4,1.4,0,0,1-.015.823c-.329,1.472-.666,2.945-1,4.417-2.58-1.935-2.661-5.9-4.9-8.224,1.705.779,3.417,1.564,5.122,2.34a1.394,1.394,0,0,1,.793.643Z" transform="translate(-1405.878 -781.696)" fill="#352f6c"/>
    <path id="Path_222" data-name="Path 222" d="M1789.788,1116.865c-9.079-3.68-17.49-4.023-27.315-2.984-2.453.262-5.115.785-6.655,2.586-1.787,2.095-1.42,5.1-.868,7.724,3.088,14.684,9.019,29.088,8.479,44.041a155.828,155.828,0,0,1,33.745-1.472,89.6,89.6,0,0,1-.92-36.056c.516-2.894.143-6.976-1.764-9.308-1.031-1.271-3.132-3.88-4.7-4.515Z" transform="translate(-1322.23 -757.906)" fill="#e8e9eb"/>
    <path id="Path_223" data-name="Path 223" d="M1845.556,1057.98a34.623,34.623,0,0,1-10.274.247c.808,4.059,1.257,5.838-.142,9.725,18.05,4.7,13.063,3.671,13.4,2.528-2.49-3.627-2.505-8.134-2.976-12.5Z" transform="translate(-1389.739 -711.537)" fill="#e7a988"/>
    <path id="Path_224" data-name="Path 224" d="M1855.028,1070.481c-2.49-3.627-2.5-8.134-2.976-12.5a37.29,37.29,0,0,1-9.152.4,83.107,83.107,0,0,0,2.73,10.616C1858.887,1072.476,1854.722,1071.526,1855.028,1070.481Z" transform="translate(-1396.235 -711.537)" fill="#d88568"/>
    <path id="Path_225" data-name="Path 225" d="M1854.486,1067.037c-.9-2.862-1.016-6.01-1.354-9.1a38.094,38.094,0,0,1-8.942.425c.456,5.473,5.21,8.253,10.3,8.672Z" transform="translate(-1397.315 -711.503)" fill="#352f6c"/>
    <path id="Path_226" data-name="Path 226" d="M1824.723,981.147a7.293,7.293,0,0,0-4.927-.269c-1.809.508-4.052,1.084-5.272,2.706a6.152,6.152,0,0,0-.494,5.6,13.1,13.1,0,0,0,7.022,7.874,13.3,13.3,0,0,0,8.644.837,1.738,1.738,0,0,0,1.428-1.862,22.812,22.812,0,0,0-1.033-6.145c-.246-.65-.9-1.137-1.091-1.757-.21-.665.089-1.271-.156-1.943-.853-2.288-1.959-4.082-4.112-5.046Z" transform="translate(-1371.703 -646.739)" fill="#e7a988"/>
    <path id="Path_227" data-name="Path 227" d="M1823.131,998.05a13.721,13.721,0,0,0,6.536.1,1.736,1.736,0,0,0,1.427-1.862c-.029-.336-.059-.673-.09-1A8.939,8.939,0,0,1,1823.131,998.05Zm-3.738-11.574a16.254,16.254,0,0,0,5.7-.933,4.045,4.045,0,0,0,2.678-1.31,6.716,6.716,0,0,0-3.119-2.855c-1.974-.875-4.277-.486-6.341.157a7.34,7.34,0,0,0-3.828,2.288,6.149,6.149,0,0,0-.494,5.6,13.383,13.383,0,0,0,5.4,6.989c.031-3.318-1.876-6.735,0-9.942l.008.006Z" transform="translate(-1371.667 -646.986)" fill="#d88568"/>
    <path id="Path_228" data-name="Path 228" d="M1819.857,954.8a4.729,4.729,0,0,1-2.2,2.19,2.349,2.349,0,0,0,.612-1.5,6.126,6.126,0,0,1-4,2.176c-1.533.269-3.1.224-4.65.434a6.926,6.926,0,0,0-4.2,1.832c-1.189,1.256-2.886,2.968-2.326,4.882a3.866,3.866,0,0,0-.769,3.065,5.727,5.727,0,0,0,2.572,3.245,16.182,16.182,0,0,1,3.349,2.578,11.016,11.016,0,0,0,.45-3.057c.418.321.808.673,1.2,1.025a.549.549,0,0,0,.577-.494,4.611,4.611,0,0,0-.433-1.525c-.383-.651-.689-.494-1.062-1.145a3.775,3.775,0,0,1-.277-.6,12.984,12.984,0,0,1,.427-3.836c.127-.015.254-.037.388-.052a22.585,22.585,0,0,0,6.109-.987c1.928-.754,3.671-2.451,3.738-4.522-.336.292-.664.591-1,.882a8.686,8.686,0,0,0,1.5-4.59Z" transform="translate(-1362.216 -625.161)" fill="#352f6c"/>
    <path id="Path_229" data-name="Path 229" d="M1835.328,1048.487a4.98,4.98,0,0,0-2.767-1.674,1.242,1.242,0,0,0-.777,1.062,2.638,2.638,0,0,0,.277,1.345,6.03,6.03,0,0,0,1.023,1.593,2.44,2.44,0,0,0,1.151.808,1.127,1.127,0,0,0,1.257-.441Z" transform="translate(-1386.92 -702.178)" fill="#e7a988"/>
    <path id="Path_230" data-name="Path 230" d="M1952.34,1140c.516-2.893.142-6.974-1.766-9.307-1.031-1.272-3.132-3.881-4.694-4.516a46.952,46.952,0,0,0-4.921-1.689c6.071,16.4,4.673,34,5.331,51.286q3.489.068,6.976.292a89.6,89.6,0,0,1-.92-36.056Zm-10.281,35.967a.163.163,0,0,1-.15-.089.171.171,0,0,1,.067-.231l2.684-1.5a1.045,1.045,0,0,0-.852-.373.173.173,0,0,1-.187-.15.179.179,0,0,1,.142-.194,1.736,1.736,0,0,0,1.264-1.622,5.681,5.681,0,0,0-.366-2.1l-.067-.225c-1.279-4.29-1.4-8.828-1.5-13.209-.081-3.14-.462-6.751-.829-10.235s-.756-7.11-.831-10.265a.181.181,0,0,1,.165-.179.175.175,0,0,1,.173.173c.081,3.139.462,6.75.829,10.234s.756,7.11.831,10.265c.112,4.359.223,8.867,1.5,13.121l.067.223a6,6,0,0,1,.375,2.236,2.294,2.294,0,0,1-.958,1.7,1.384,1.384,0,0,1,.643.577.172.172,0,0,1-.067.231l-2.849,1.593a.318.318,0,0,1-.083.021h.008Z" transform="translate(-1478.323 -767.214)" fill="#352f6c"/>
    <path id="Path_231" data-name="Path 231" d="M1932.843,1158.78c-.516.792-.456,2.482-1.293,2.916a85.717,85.717,0,0,1,.194,31.181c2.153,1.705,3.829,2.49,5.272,3.515.171-2.894,1.2-3.117,1.187-4.538-.015-1.3-.388-3.088-.739-5.952-1.077-8.911-1.989-18.541-4.629-27.122Z" transform="translate(-1470.446 -795.918)" fill="#352f6c"/>
    <path id="Path_232" data-name="Path 232" d="M1765.817,1106.68c-.412.029-.906,1.322-1.324,1.36-.815.075-.733.173-1.57.27-2.453.275-5.114.844-6.655,2.766-1.787,2.243-1.181,5.421-.866,8.276,2.153,19.842,11.372,27.595,6.647,57.939,3.723-.612,8.621-1.7,13.04-2.37a5.439,5.439,0,0,0,4.621-5.689c-.823-14.511-1.331-34.936-3.117-48.041C1775.792,1115.172,1770.863,1109.708,1765.817,1106.68Z" transform="translate(-1322.688 -752.304)" fill="#7d95c9"/>
    <path id="Path_233" data-name="Path 233" d="M1815.31,1421.9a13.391,13.391,0,0,0,9.668-6.676A96.668,96.668,0,0,1,1815.31,1421.9Z" transform="translate(-1373.139 -1010.59)" fill="#c7d3dd"/>
    <path id="Path_234" data-name="Path 234" d="M1755.588,1169.93c.075.8.179,1.6.262,2.378a78.222,78.222,0,0,0,2.124,11.333c3.992,9.225,11.97,16.164,21.295,20.229-.277-5.831-.591-11.766-1-17.284-9.752-3.139-18.641-7.789-22.687-16.648Z" transform="translate(-1323.138 -805.252)" fill="#352f6c"/>
    <path id="Path_235" data-name="Path 235" d="M1825.007,1179.415a.172.172,0,0,1-.171-.165,187.734,187.734,0,0,0-7.028-43.555.19.19,0,0,1,.021-.142.18.18,0,0,1,.112-.083,9.626,9.626,0,0,0,3.38-1.322l-3.207-.412a.153.153,0,0,1-.121-.075.177.177,0,0,1-.029-.134,19.1,19.1,0,0,0-7.186-19.065.171.171,0,1,1,.2-.275,19.451,19.451,0,0,1,7.357,19.228l3.486.448a.168.168,0,0,1,.141.127.17.17,0,0,1-.067.181,9.943,9.943,0,0,1-3.709,1.591,188.123,188.123,0,0,1,6.991,43.459.17.17,0,0,1-.165.179l-.008.015Z" transform="translate(-1369.288 -758.563)" fill="#352f6c"/>
    <path id="Path_236" data-name="Path 236" d="M1798.322,1432.242a.163.163,0,0,1-.15-.09.167.167,0,0,1,.075-.231,18.844,18.844,0,0,1,7.215-1.637c.373-.037.74-.068,1.114-.106,2.684-.269,5.7-.823,7.709-2.826a.174.174,0,0,1,.246.248c-2.085,2.085-5.173,2.647-7.917,2.924-.375.036-.741.073-1.114.1a18.59,18.59,0,0,0-7.082,1.591.137.137,0,0,1-.081.023Zm2.714-13.995a.183.183,0,0,1-.15-.083.175.175,0,0,1,.06-.239q4.878-3.007,9.533-6.354a.171.171,0,1,1,.2.277c-3.095,2.22-6.31,4.365-9.556,6.362a.2.2,0,0,1-.09.023v.015Z" transform="translate(-1358.775 -1007.509)" fill="#352f6c"/>
    <path id="Path_237" data-name="Path 237" d="M1970.735,1139.36c4.86,4.142,4.6,7.432,7.1,13.307a55.965,55.965,0,0,1,3.933,13.457c.425,3.5-.419,7.872-1.062,11.341-1.384,7.522-1.362,14.123-3.477,21.472-2.072-2.5-4.277-4.173-4.554-7.4a15.188,15.188,0,0,1,.322-3.9c.792-4.479,1.847-8.98,1.525-13.517-.314-4.494-1.959-8.763-3.036-13.136-1.562-6.331-1.958-12.888-2.339-19.4l1.577-2.212Z" transform="translate(-1501.922 -779.662)" fill="#98a9d8"/>
    <path id="Path_238" data-name="Path 238" d="M1972.17,1197.61a78.077,78.077,0,0,0,1.847,12.126c1.084,4.365,2.721,8.642,3.036,13.135.323,4.538-.733,9.04-1.525,13.517a15.207,15.207,0,0,0-.323,3.9c.285,3.23,2.482,4.9,4.554,7.4.15-.523.285-1.039.419-1.555C1980.522,1229.181,1981.174,1212.277,1972.17,1197.61Z" transform="translate(-1504.45 -828.424)" fill="#352f6c"/>
    <path id="Path_239" data-name="Path 239" d="M1772.265,1152.835c.612-3.7-.622-4.709-2.909-7.678s-4.419-2.78-7.426-5.017c-3.813-2.847-7.642-9.771-11.455-12.612a8.144,8.144,0,0,0-2.968-1.622c-2.184-.479-4.456,1.01-5.437,3.02a10.257,10.257,0,0,0-.463,6.564,26.514,26.514,0,0,0,7.566,13.173,57.082,57.082,0,0,0,12.494,8.949c2.505,1.406,5.5,2.766,8.136,1.63,2.026-.868,2.109-4.225,2.468-6.4Z" transform="translate(-1311.176 -768.324)" fill="#98a9d8"/>
    <path id="Path_240" data-name="Path 240" d="M1747.152,1144.472a10.768,10.768,0,0,1,3.14-9.7c-.793-.433-1.772.142-2.386.8a7.253,7.253,0,0,0-.754,8.89Zm5.45-7.789a.737.737,0,0,0-.5-1.032.7.7,0,1,0-.135,1.4A.744.744,0,0,0,1752.6,1136.683Z" transform="translate(-1315.097 -775.698)" fill="#c7d3dd"/>
    <path id="Path_241" data-name="Path 241" d="M1855.926,1215.19a12.254,12.254,0,0,0,3.4,15.812,19.859,19.859,0,0,1-.21-14.019C1858.057,1216.385,1856.988,1215.788,1855.926,1215.19Z" transform="translate(-1405.844 -843.14)" fill="#352f6c"/>
    <path id="Path_242" data-name="Path 242" d="M1901.586,1075.17a6.772,6.772,0,0,1,2.137-.508,8.384,8.384,0,0,1,2.961-.021,22.475,22.475,0,0,1,2.678,1.24.743.743,0,0,1,.471.935c-.142.433-.269.837-.441,1.331-.1.292.031.816-.26.9a.663.663,0,0,1-.741-.456,1.949,1.949,0,0,1-.023-.95,8.02,8.02,0,0,1-2.422,1.66,8.642,8.642,0,0,0-.046,3.036c-1.591-.158-3.184-.381-4.754-.681a1.4,1.4,0,0,1-1.018-.531,1.379,1.379,0,0,1-.119-.658c-.015-1.21.321-2.2.306-3.409C1900.643,1076.33,1900.868,1075.516,1901.586,1075.17Z" transform="translate(-1444.041 -725.378)" fill="#e7a988"/>
    <path id="Path_243" data-name="Path 243" d="M1900.207,1100.03a10.811,10.811,0,0,0-.164,1.8,1.325,1.325,0,0,0,.121.658,1.389,1.389,0,0,0,1.016.529q2.362.447,4.756.681a8.425,8.425,0,0,1-.075-2.085,26.747,26.747,0,0,1-5.645-1.585Z" transform="translate(-1444.069 -746.738)" fill="#d88568"/>
    <path id="Path_244" data-name="Path 244" d="M1876.4,1145.417a4.931,4.931,0,0,0,3.215-3.193,14.69,14.69,0,0,0,.658-4.65c.292-8.822,1-18.923,1.287-27.745-1.937-.6-6.468-.844-8.4-1.45-1.016,9.852-4.621,20.1-3.261,29.948a10.782,10.782,0,0,0,1.772,5.083,4.778,4.778,0,0,0,4.733,2Z" transform="translate(-1418.579 -753.728)" fill="#98a9d8"/>
    <path id="Path_245" data-name="Path 245" d="M1873.524,1144.5a107.172,107.172,0,0,0-2.976,13.578,35.86,35.86,0,0,0,.6,13.807A100.9,100.9,0,0,1,1873.524,1144.5Z" transform="translate(-1419.052 -783.964)" fill="#c7d3dd"/>
    <path id="Path_246" data-name="Path 246" d="M1897.634,1125.631a24.555,24.555,0,0,1-8.494-1.5.175.175,0,1,1,.119-.329,24.452,24.452,0,0,0,8.382,1.481h.127a.172.172,0,1,1,0,.344h-.127Z" transform="translate(-1434.847 -766.628)" fill="#352f6c"/>
    <path id="Path_247" data-name="Path 247" d="M1952.412,1187.695c.779.119,1.541.231,2.28.283-2.661-13.263-5.233-34.359-3.005-47.705.516-3.1.627-7.624-1.279-10.129-1.033-1.36-3.313-4.313-4.883-4.994s-3.8-1.331-5.346-1.809c1.345,2.078,2.961,4.71,3.282,6.96,2.609,14.363,2.587,36.947,4.367,52.61a5.468,5.468,0,0,0,4.577,4.785Z" transform="translate(-1477.67 -766.251)" fill="#7d95c9"/>
    <path id="Path_248" data-name="Path 248" d="M1959.934,1190.461a.17.17,0,0,1-.171-.156c-1.091-11.058-1.622-29.9-.681-40.536l-2.378.389a.17.17,0,0,1-.187-.106.188.188,0,0,1,.06-.208l2.917-2.041a64.4,64.4,0,0,0-7.224-18.922.178.178,0,0,1,.06-.24.175.175,0,0,1,.239.067,64.663,64.663,0,0,1,7.282,19.132.187.187,0,0,1-.067.179l-2.393,1.674,1.845-.3a.164.164,0,0,1,.143.044.173.173,0,0,1,.052.142c-.964,10.564-.441,29.569.658,40.692A.17.17,0,0,1,1959.934,1190.461Z" transform="translate(-1487.772 -770.671)" fill="#352f6c"/>
    <path id="Path_249" data-name="Path 249" d="M2001.179,1439.881a7.928,7.928,0,0,1-4.629-1.5.171.171,0,0,1,.2-.277,7.525,7.525,0,0,0,4.74,1.428.17.17,0,0,1,.181.165.176.176,0,0,1-.165.179h-.329v.007Zm-2.095-13.284a.218.218,0,0,1-.112-.037l-1.562-1.279a.17.17,0,0,1,.217-.262l1.562,1.279a.168.168,0,0,1,.023.24.159.159,0,0,1-.134.06Z" transform="translate(-1524.799 -1018.759)" fill="#352f6c"/>
    <path id="Path_250" data-name="Path 250" d="M1835.347,1052.34a3.289,3.289,0,0,1,1.481.881.449.449,0,0,1,.127.2c.023.156-.112.277-.187.419a.533.533,0,0,0,.285.725c.142.052.352.09.352.24,0,.083-.083.142-.15.2a.69.69,0,0,0-.173.725,2.687,2.687,0,0,1-.837-.717.956.956,0,0,1-.06-1.047c.031-.044.068-.1.037-.142a.113.113,0,0,0-.1-.037.986.986,0,0,1-.779-.516,1,1,0,0,1,.008-.933h-.008Z" transform="translate(-1389.819 -706.815)" fill="#d88568"/>
  </g>
</svg>
